Vesper  Libre-Regular.ufo
<glyph name="plus" format="1">
  <advance width="1024"/>
  <unicode hex="002B"/>
  <outline>
    <contour>
      <point x="573" y="209" type="line"/>
      <point x="573" y="509" type="line"/>
      <point x="684" y="511"/>
      <point x="784" y="515"/>
      <point x="864" y="523" type="curve"/>
      <point x="885" y="644" type="line"/>
      <point x="573" y="644" type="line"/>
      <point x="573" y="928" type="line"/>
      <point x="436" y="906" type="line"/>
      <point x="436" y="644" type="line"/>
      <point x="166" y="644" type="line"/>
      <point x="142" y="506" type="line"/>
      <point x="215" y="506"/>
      <point x="325" y="506"/>
      <point x="438" y="507" type="curve"/>
      <point x="438" y="379"/>
      <point x="441" y="256"/>
      <point x="448" y="180" type="curve"/>
    </contour>
  </outline>
</glyph>
<glyph name="question" format="1">
  <advance width="843"/>
  <unicode hex="003F"/>
  <outline>
    <contour>
      <point x="238" y="448" type="line"/>
      <point x="354" y="404" type="line"/>
      <point x="373" y="467"/>
      <point x="414" y="616"/>
      <point x="424" y="662" type="curve"/>
      <point x="662" y="754"/>
      <point x="773" y="870"/>
      <point x="773" y="1058" type="curve" smooth="yes"/>
      <point x="773" y="1272"/>
      <point x="530" y="1418"/>
      <point x="319" y="1418" type="curve" smooth="yes"/>
      <point x="235" y="1418"/>
      <point x="102" y="1396"/>
      <point x="102" y="1301" type="curve" smooth="yes"/>
      <point x="102" y="1241"/>
      <point x="167" y="1177"/>
      <point x="220" y="1177" type="curve" smooth="yes"/>
      <point x="243" y="1177"/>
      <point x="264" y="1184"/>
      <point x="280" y="1192" type="curve"/>
      <point x="315" y="1335" type="line"/>
      <point x="389" y="1331"/>
      <point x="569" y="1217"/>
      <point x="569" y="1034" type="curve" smooth="yes"/>
      <point x="569" y="916"/>
      <point x="486" y="801"/>
      <point x="250" y="681" type="curve" smooth="yes"/>
      <point x="231" y="671"/>
      <point x="229" y="666"/>
      <point x="230" y="647" type="curve" smooth="yes"/>
    </contour>
    <component base="period" xOffset="51"/>
  </outline>
</glyph>
<glyph name="A" format="1">
  <advance width="1336"/>
  <unicode hex="0041"/>
  <outline>
    <contour>
      <point x="1207" y="133" type="line"/>
      <point x="715" y="1419" type="line"/>
      <point x="596" y="1384" type="line"/>
      <point x="145" y="142" type="line"/>
      <point x="-10" y="95" type="line"/>
      <point x="-28" y="0" type="line"/>
      <point x="469" y="0" type="line"/>
      <point x="487" y="83" type="line"/>
      <point x="281" y="138" type="line"/>
      <point x="281" y="138"/>
      <point x="326" y="269"/>
      <point x="384" y="437" type="curve"/>
      <point x="551" y="436"/>
      <point x="716" y="441"/>
      <point x="878" y="451" type="curve"/>
      <point x="998" y="133" type="line"/>
      <point x="834" y="86" type="line"/>
      <point x="818" y="0" type="line"/>
      <point x="1337" y="0" type="line"/>
      <point x="1358" y="99" type="line"/>
    </contour>
    <contour>
      <point x="428" y="568" type="line"/>
      <point x="513" y="820"/>
      <point x="605" y="1099"/>
      <point x="614" y="1155" type="curve"/>
      <point x="835" y="568" type="line"/>
    </contour>
    <contour>
      <point x="1202" y="10" type="move" name="ogonek"/>
    </contour>
    <contour>
      <point x="662" y="0" type="move" name="bottom"/>
    </contour>
    <contour>
      <point x="649" y="1384" type="move" name="top"/>
    </contour>
  </outline>
</glyph>
<glyph name="F" format="1">
  <advance width="1167"/>
  <unicode hex="0046"/>
  <outline>
    <contour>
      <point x="264" y="1248" type="line"/>
      <point x="264" y="141" type="line"/>
      <point x="86" y="86" type="line"/>
      <point x="69" y="0" type="line"/>
      <point x="687" y="0" type="line"/>
      <point x="720" y="102" type="line"/>
      <point x="456" y="157" type="line"/>
      <point x="456" y="657" type="line"/>
      <point x="555" y="641"/>
      <point x="659" y="636"/>
      <point x="765" y="637" type="curve"/>
      <point x="811" y="479" type="line"/>
      <point x="888" y="463" type="line"/>
      <point x="907" y="913" type="line"/>
      <point x="831" y="936" type="line"/>
      <point x="767" y="765" type="line"/>
      <point x="662" y="762"/>
      <point x="559" y="757"/>
      <point x="456" y="741" type="curve"/>
      <point x="456" y="1291" type="line"/>
      <point x="951" y="1246" type="line"/>
      <point x="1048" y="1024" type="line"/>
      <point x="1138" y="1044" type="line"/>
      <point x="1105" y="1397" type="line"/>
      <point x="978" y="1384" type="line"/>
      <point x="93" y="1384" type="line"/>
      <point x="76" y="1301" type="line"/>
    </contour>
  </outline>
</glyph>
<glyph name="e" format="1">
  <advance width="921"/>
  <unicode hex="0065"/>
  <outline>
    <contour>
      <point x="374" y="119"/>
      <point x="258" y="300"/>
      <point x="245" y="488" type="curve"/>
      <point x="782" y="488" type="line" smooth="yes"/>
      <point x="807" y="488"/>
      <point x="816" y="500"/>
      <point x="823" y="522" type="curve" smooth="yes"/>
      <point x="837" y="567"/>
      <point x="844" y="613"/>
      <point x="844" y="656" type="curve" smooth="yes"/>
      <point x="844" y="832"/>
      <point x="730" y="975"/>
      <point x="527" y="975" type="curve" smooth="yes"/>
      <point x="256" y="975"/>
      <point x="74" y="744"/>
      <point x="74" y="453" type="curve" smooth="yes"/>
      <point x="74" y="106"/>
      <point x="266" y="-25"/>
      <point x="483" y="-25" type="curve" smooth="yes"/>
      <point x="630" y="-25"/>
      <point x="778" y="85"/>
      <point x="837" y="156" type="curve"/>
      <point x="813" y="191" type="line"/>
      <point x="781" y="173"/>
      <point x="646" y="119"/>
      <point x="547" y="119" type="curve" smooth="yes"/>
    </contour>
    <contour>
      <point x="565" y="858"/>
      <point x="677" y="769"/>
      <point x="678" y="597" type="curve"/>
      <point x="245" y="563" type="line"/>
      <point x="252" y="707"/>
      <point x="298" y="801"/>
      <point x="328" y="833" type="curve" smooth="yes"/>
      <point x="351" y="856"/>
      <point x="398" y="858"/>
      <point x="430" y="858" type="curve" smooth="yes"/>
    </contour>
    <contour>
      <point x="829" y="10" type="move" name="ogonek"/>
    </contour>
    <contour>
      <point x="461" y="0" type="move" name="bottom"/>
    </contour>
    <contour>
      <point x="481" y="950" type="move" name="top"/>
    </contour>
  </outline>
</glyph>
<glyph name="w" format="1">
  <advance width="1494"/>
  <unicode hex="0077"/>
  <outline>
    <contour>
      <point x="1096" y="950" type="line"/>
      <point x="1082" y="874" type="line"/>
      <point x="1249" y="826" type="line"/>
      <point x="1095" y="200" type="line"/>
      <point x="805" y="950" type="line"/>
      <point x="730" y="950" type="line"/>
      <point x="494" y="200" type="line"/>
      <point x="321" y="823" type="line"/>
      <point x="439" y="879" type="line"/>
      <point x="453" y="950" type="line"/>
      <point x="6" y="950" type="line"/>
      <point x="-8" y="877" type="line"/>
      <point x="136" y="821" type="line"/>
      <point x="388" y="-25" type="line"/>
      <point x="518" y="0" type="line"/>
      <point x="736" y="656" type="line"/>
      <point x="987" y="-25" type="line"/>
      <point x="1118" y="0" type="line"/>
      <point x="1364" y="823" type="line"/>
      <point x="1475" y="889" type="line"/>
      <point x="1487" y="950" type="line"/>
    </contour>
    <contour>
      <point x="747" y="950" type="move" name="top"/>
    </contour>
  </outline>
</glyph>
<glyph name="yen" format="1">
  <advance width="1357"/>
  <unicode hex="00A5"/>
  <outline>
    <contour>
      <point x="1249" y="1213" type="line"/>
      <point x="1276" y="1310" type="line"/>
      <point x="822" y="1310" type="line"/>
      <point x="806" y="1225" type="line"/>
      <point x="991" y="1173" type="line"/>
      <point x="729" y="638" type="line"/>
      <point x="415" y="1176" type="line"/>
      <point x="575" y="1225" type="line"/>
      <point x="590" y="1310" type="line"/>
      <point x="94" y="1310" type="line"/>
      <point x="76" y="1215" type="line"/>
      <point x="207" y="1180" type="line"/>
      <point x="531" y="638" type="line"/>
      <point x="278" y="638" type="line"/>
      <point x="254" y="518" type="line"/>
      <point x="589" y="528" type="line"/>
      <point x="589" y="408" type="line"/>
      <point x="279" y="408" type="line"/>
      <point x="255" y="288" type="line"/>
      <point x="589" y="298" type="line"/>
      <point x="589" y="139" type="line"/>
      <point x="418" y="85" type="line"/>
      <point x="402" y="0" type="line"/>
      <point x="963" y="0" type="line"/>
      <point x="980" y="84" type="line"/>
      <point x="781" y="139" type="line"/>
      <point x="781" y="304" type="line"/>
      <point x="1120" y="314" type="line"/>
      <point x="1135" y="408" type="line"/>
      <point x="781" y="408" type="line"/>
      <point x="781" y="534" type="line"/>
      <point x="1119" y="544" type="line"/>
      <point x="1134" y="638" type="line"/>
      <point x="832" y="638" type="line"/>
      <point x="1131" y="1181" type="line"/>
    </contour>
  </outline>
</glyph>
<glyph name="guillemotleft" format="1">
  <advance width="1006"/>
  <unicode hex="00AB"/>
  <outline>
    <contour>
      <point x="450" y="637"/>
      <point x="552" y="767"/>
      <point x="593" y="853" type="curve"/>
      <point x="513" y="926" type="line"/>
      <point x="78" y="461" type="line"/>
      <point x="513" y="-2" type="line"/>
      <point x="594" y="70" type="line"/>
      <point x="552" y="157"/>
      <point x="450" y="287"/>
      <point x="302" y="461" type="curve"/>
    </contour>
    <contour>
      <point x="780" y="557"/>
      <point x="860" y="667"/>
      <point x="893" y="741" type="curve"/>
      <point x="814" y="812" type="line"/>
      <point x="496" y="461" type="line"/>
      <point x="814" y="111" type="line"/>
      <point x="895" y="182" type="line"/>
      <point x="859" y="253"/>
      <point x="797" y="348"/>
      <point x="708" y="461" type="curve"/>
    </contour>
  </outline>
</glyph>
<glyph name="degree" format="1">
  <advance width="681"/>
  <unicode hex="00B0"/>
  <outline>
    <contour>
      <point x="486" y="931"/>
      <point x="590" y="1034"/>
      <point x="590" y="1178" type="curve" smooth="yes"/>
      <point x="590" y="1317"/>
      <point x="472" y="1407"/>
      <point x="348" y="1407" type="curve" smooth="yes"/>
      <point x="192" y="1407"/>
      <point x="92" y="1300"/>
      <point x="92" y="1158" type="curve" smooth="yes"/>
      <point x="92" y="1019"/>
      <point x="205" y="931"/>
      <point x="338" y="931" type="curve" smooth="yes"/>
    </contour>
    <contour>
      <point x="255" y="1030"/>
      <point x="209" y="1105"/>
      <point x="209" y="1184" type="curve" smooth="yes"/>
      <point x="209" y="1252"/>
      <point x="255" y="1312"/>
      <point x="325" y="1312" type="curve" smooth="yes"/>
      <point x="417" y="1312"/>
      <point x="470" y="1238"/>
      <point x="470" y="1153" type="curve" smooth="yes"/>
      <point x="470" y="1084"/>
      <point x="425" y="1030"/>
      <point x="354" y="1030" type="curve" smooth="yes"/>
    </contour>
  </outline>
</glyph>
<glyph name="threequarters" format="1">
  <advance width="1572"/>
  <unicode hex="00BE"/>
  <outline>
    <contour>
      <point x="805" y="204" type="line"/>
      <point x="1124" y="204" type="line"/>
      <point x="1124" y="-60" type="line"/>
      <point x="1274" y="-26" type="line"/>
      <point x="1274" y="204" type="line"/>
      <point x="1350" y="204" type="line"/>
      <point x="1366" y="310" type="line"/>
      <point x="1273" y="307" type="line"/>
      <point x="1273" y="450" type="line"/>
      <point x="1119" y="415" type="line"/>
      <point x="1119" y="298" type="line"/>
      <point x="939" y="293" type="line"/>
      <point x="1251" y="733" type="line"/>
      <point x="1094" y="759" type="line"/>
      <point x="774" y="257" type="line"/>
    </contour>
    <component base="threesuperior" yOffset="-261"/>
    <component base="fraction" xOffset="556"/>
  </outline>
</glyph>
<glyph name="lslash" format="1">
  <advance width="572"/>
  <unicode hex="0142"/>
  <outline>
    <contour>
      <point x="582" y="892" type="line"/>
      <point x="558" y="996" type="line"/>
      <point x="-8" y="726" type="line"/>
      <point x="16" y="629" type="line"/>
    </contour>
    <component base="l" xOffset="1"/>
  </outline>
</glyph>
<glyph name="ideva" format="1">
  <advance width="966"/>
  <unicode hex="0907"/>
  <note>
    dI
  </note>
  <outline>
    <contour>
      <point x="566" y="573"/>
      <point x="419" y="522"/>
      <point x="321" y="517" type="curve" smooth="yes"/>
      <point x="298" y="516"/>
      <point x="286" y="516"/>
      <point x="277" y="528" type="curve" smooth="yes"/>
      <point x="261" y="549"/>
      <point x="251" y="590"/>
      <point x="251" y="628" type="curve" smooth="yes"/>
      <point x="251" y="675"/>
      <point x="260" y="736"/>
      <point x="375" y="736" type="curve" smooth="yes"/>
      <point x="752" y="736" type="line"/>
      <point x="757" y="782"/>
      <point x="759" y="802"/>
      <point x="759" y="834" type="curve" smooth="yes"/>
      <point x="759" y="909"/>
      <point x="748" y="990"/>
      <point x="732" y="1053" type="curve"/>
      <point x="1018" y="1053" type="line"/>
      <point x="969" y="1187" type="line"/>
      <point x="-72" y="1187" type="line"/>
      <point x="-18" y="1053" type="line"/>
      <point x="595" y="1053" type="line"/>
      <point x="600" y="1021"/>
      <point x="602" y="973"/>
      <point x="602" y="935" type="curve" smooth="yes"/>
      <point x="602" y="908"/>
      <point x="601" y="894"/>
      <point x="599" y="880" type="curve"/>
      <point x="356" y="880" type="line" smooth="yes"/>
      <point x="250" y="880"/>
      <point x="98" y="852"/>
      <point x="98" y="693" type="curve" smooth="yes"/>
      <point x="98" y="596"/>
      <point x="211" y="388"/>
      <point x="403" y="388" type="curve" smooth="yes"/>
      <point x="563" y="388"/>
      <point x="679" y="437"/>
      <point x="758" y="437" type="curve" smooth="yes"/>
      <point x="765" y="437"/>
      <point x="776" y="384"/>
      <point x="775" y="350" type="curve" smooth="yes"/>
      <point x="773" y="230"/>
      <point x="641" y="165"/>
      <point x="505" y="148" type="curve" smooth="yes"/>
      <point x="459" y="141"/>
      <point x="408" y="143"/>
      <point x="366" y="147" type="curve"/>
      <point x="317" y="240"/>
      <point x="266" y="306"/>
      <point x="237" y="306" type="curve" smooth="yes"/>
      <point x="167" y="306"/>
      <point x="84" y="225"/>
      <point x="84" y="144" type="curve" smooth="yes"/>
      <point x="84" y="80"/>
      <point x="183" y="37"/>
      <point x="297" y="15" type="curve"/>
      <point x="372" y="-149"/>
      <point x="457" y="-288"/>
      <point x="595" y="-288" type="curve" smooth="yes"/>
      <point x="635" y="-288"/>
      <point x="683" y="-280"/>
      <point x="741" y="-237" type="curve"/>
      <point x="674" y="-110" type="line"/>
      <point x="640" y="-129"/>
      <point x="617" y="-140"/>
      <point x="583" y="-140" type="curve" smooth="yes"/>
      <point x="508" y="-140"/>
      <point x="456" y="-96"/>
      <point x="408" y="2" type="curve"/>
      <point x="426" y="1"/>
      <point x="443" y="0"/>
      <point x="460" y="0" type="curve" smooth="yes"/>
      <point x="673" y="0"/>
      <point x="889" y="72"/>
      <point x="890" y="310" type="curve" smooth="yes"/>
      <point x="890" y="388"/>
      <point x="804" y="573"/>
      <point x="676" y="573" type="curve" smooth="yes"/>
    </contour>
    <contour>
      <point x="664" y="1187" type="move" name="top"/>
    </contour>
  </outline>
</glyph>
<glyph name="ocandradeva" format="1">
  <advance width="1973"/>
  <unicode hex="0911"/>
  <note>
    dCandraO
  </note>
  <outline>
    <component base="aadeva"/>
    <component base="ecandravowelsigndeva" xOffset="1475"/>
    <contour>
      <point x="1686" y="1377" type="move" name="top"/>
    </contour>
  </outline>
</glyph>
<glyph name="chadeva" format="1">
  <advance width="1298"/>
  <unicode hex="091B"/>
  <note>
    dCha
  </note>
  <outline>
    <contour>
      <point x="1064" y="885"/>
      <point x="1065" y="911"/>
      <point x="1065" y="931" type="curve"/>
      <point x="1064" y="976"/>
      <point x="1052" y="1018"/>
      <point x="1039" y="1053" type="curve"/>
      <point x="1350" y="1053" type="line"/>
      <point x="1299" y="1187" type="line"/>
      <point x="-52" y="1187" type="line"/>
      <point x="4" y="1053" type="line"/>
      <point x="127" y="1053" type="line"/>
      <point x="95" y="1010"/>
      <point x="76" y="955"/>
      <point x="76" y="893" type="curve" smooth="yes"/>
      <point x="76" y="775"/>
      <point x="150" y="679"/>
      <point x="252" y="630" type="curve"/>
      <point x="178" y="566"/>
      <point x="129" y="481"/>
      <point x="129" y="387" type="curve" smooth="yes"/>
      <point x="129" y="165"/>
      <point x="339" y="-12"/>
      <point x="636" y="-12" type="curve" smooth="yes"/>
      <point x="974" y="-12"/>
      <point x="1235" y="200"/>
      <point x="1235" y="522" type="curve" smooth="yes"/>
      <point x="1235" y="672"/>
      <point x="1167" y="804"/>
      <point x="1060" y="864" type="curve"/>
    </contour>
    <contour>
      <point x="477" y="111"/>
      <point x="399" y="120"/>
      <point x="372" y="136" type="curve" smooth="yes"/>
      <point x="348" y="150"/>
      <point x="284" y="209"/>
      <point x="284" y="319" type="curve" smooth="yes"/>
      <point x="284" y="459"/>
      <point x="407" y="546"/>
      <point x="596" y="593" type="curve"/>
      <point x="521" y="749" type="line"/>
      <point x="449" y="738"/>
      <point x="379" y="713"/>
      <point x="318" y="677" type="curve"/>
      <point x="256" y="730"/>
      <point x="242" y="796"/>
      <point x="242" y="860" type="curve" smooth="yes"/>
      <point x="242" y="960"/>
      <point x="308" y="1053"/>
      <point x="421" y="1053" type="curve" smooth="yes"/>
      <point x="934" y="1053" type="line"/>
      <point x="935" y="1039"/>
      <point x="936" y="1023"/>
      <point x="936" y="1004" type="curve" smooth="yes"/>
      <point x="936" y="969"/>
      <point x="928" y="932"/>
      <point x="919" y="897" type="curve"/>
      <point x="806" y="891"/>
      <point x="718" y="814"/>
      <point x="710" y="708" type="curve"/>
      <point x="710" y="565"/>
      <point x="784" y="441"/>
      <point x="1018" y="357" type="curve"/>
      <point x="919" y="208"/>
      <point x="729" y="111"/>
      <point x="526" y="111" type="curve" smooth="yes"/>
    </contour>
    <contour>
      <point x="955" y="473"/>
      <point x="872" y="569"/>
      <point x="872" y="675" type="curve" smooth="yes"/>
      <point x="872" y="751"/>
      <point x="922" y="802"/>
      <point x="995" y="802" type="curve" smooth="yes"/>
      <point x="1011" y="802"/>
      <point x="1037" y="797"/>
      <point x="1045" y="788" type="curve" smooth="yes"/>
      <point x="1068" y="761"/>
      <point x="1090" y="704"/>
      <point x="1090" y="587" type="curve" smooth="yes"/>
      <point x="1090" y="528"/>
      <point x="1077" y="473"/>
      <point x="1055" y="422" type="curve"/>
    </contour>
    <contour>
      <point x="78" y="0" type="move" name="nukta"/>
    </contour>
    <contour>
      <point x="717" y="30" type="move" name="bottom"/>
    </contour>
    <contour>
      <point x="987" y="1187" type="move" name="top"/>
    </contour>
  </outline>
</glyph>
<glyph name="uuvowelsigndeva" format="1">
  <advance width="512"/>
  <unicode hex="0942"/>
  <note>
    dMatraUu
  </note>
  <outline>
    <contour>
      <point x="113" y="-11"/>
      <point x="-22" y="-87"/>
      <point x="-22" y="-228" type="curve" smooth="yes"/>
      <point x="-22" y="-401"/>
      <point x="130" y="-504"/>
      <point x="247" y="-504" type="curve" smooth="yes"/>
      <point x="326" y="-504"/>
      <point x="379" y="-478"/>
      <point x="436" y="-420" type="curve"/>
      <point x="360" y="-298" type="line"/>
      <point x="298" y="-346"/>
      <point x="258" y="-368"/>
      <point x="197" y="-368" type="curve" smooth="yes"/>
      <point x="155" y="-368"/>
      <point x="119" y="-355"/>
      <point x="112" y="-349" type="curve"/>
      <point x="104" y="-343"/>
      <point x="99" y="-311"/>
      <point x="99" y="-292" type="curve" smooth="yes"/>
      <point x="99" y="-196"/>
      <point x="176" y="-146"/>
      <point x="278" y="-146" type="curve" smooth="yes"/>
      <point x="436" y="-146"/>
      <point x="516" y="-266"/>
      <point x="661" y="-458" type="curve"/>
      <point x="713" y="-409" type="line"/>
      <point x="705" y="-385"/>
      <point x="655" y="-291"/>
      <point x="616" y="-234" type="curve" smooth="yes"/>
      <point x="538" y="-126"/>
      <point x="414" y="-11"/>
      <point x="261" y="-11" type="curve" smooth="yes"/>
    </contour>
    <contour>
      <point x="256" y="0" type="move" name="_bottom"/>
    </contour>
  </outline>
</glyph>
<glyph name="ecandravowelsigndeva" format="1">
  <advance width="512"/>
  <unicode hex="0945"/>
  <note>
    dMatraCandraE
  </note>
  <outline>
    <contour>
      <point x="-83" y="1559" type="line"/>
      <point x="-7" y="1406"/>
      <point x="133" y="1305"/>
      <point x="269" y="1305" type="curve" smooth="yes"/>
      <point x="385" y="1305"/>
      <point x="474" y="1367"/>
      <point x="549" y="1504" type="curve"/>
      <point x="437" y="1612" type="line"/>
      <point x="380" y="1521"/>
      <point x="308" y="1435"/>
      <point x="215" y="1433" type="curve" smooth="yes"/>
      <point x="148" y="1433"/>
      <point x="73" y="1453"/>
      <point x="-21" y="1599" type="curve"/>
    </contour>
    <contour>
      <point x="256" y="1187" type="move" name="_top"/>
    </contour>
  </outline>
</glyph>
<glyph name="omdeva" format="1">
  <advance width="1769"/>
  <unicode hex="0950"/>
  <note>
    dOm
  </note>
  <outline>
    <contour>
      <point x="1708" y="723"/>
      <point x="1528" y="878"/>
      <point x="1400" y="878" type="curve" smooth="yes"/>
      <point x="1289" y="878"/>
      <point x="1184" y="788"/>
      <point x="1096" y="713" type="curve" smooth="yes"/>
      <point x="998" y="629"/>
      <point x="946" y="588"/>
      <point x="872" y="588" type="curve" smooth="yes"/>
      <point x="820" y="588"/>
      <point x="763" y="600"/>
      <point x="692" y="654" type="curve"/>
      <point x="755" y="704"/>
      <point x="801" y="778"/>
      <point x="801" y="886" type="curve" smooth="yes"/>
      <point x="801" y="1037"/>
      <point x="664" y="1188"/>
      <point x="489" y="1188" type="curve" smooth="yes"/>
      <point x="351" y="1188"/>
      <point x="233" y="1124"/>
      <point x="119" y="1017" type="curve"/>
      <point x="229" y="885" type="line"/>
      <point x="348" y="1001"/>
      <point x="463" y="1073"/>
      <point x="571" y="1073" type="curve" smooth="yes"/>
      <point x="617" y="1073"/>
      <point x="645" y="1063"/>
      <point x="656" y="1052" type="curve" smooth="yes"/>
      <point x="670" y="1038"/>
      <point x="683" y="1001"/>
      <point x="683" y="966" type="curve" smooth="yes"/>
      <point x="682" y="866"/>
      <point x="652" y="777"/>
      <point x="370" y="697" type="curve"/>
      <point x="459" y="559" type="line"/>
      <point x="505" y="567"/>
      <point x="561" y="581"/>
      <point x="614" y="606" type="curve"/>
      <point x="699" y="541"/>
      <point x="744" y="464"/>
      <point x="744" y="371" type="curve" smooth="yes"/>
      <point x="744" y="255"/>
      <point x="650" y="162"/>
      <point x="519" y="162" type="curve" smooth="yes"/>
      <point x="324" y="162"/>
      <point x="197" y="372"/>
      <point x="118" y="506" type="curve"/>
      <point x="28" y="464" type="line"/>
      <point x="143" y="207"/>
      <point x="310" y="18"/>
      <point x="556" y="21" type="curve" smooth="yes"/>
      <point x="755" y="23"/>
      <point x="897" y="140"/>
      <point x="902" y="304" type="curve" smooth="yes"/>
      <point x="902" y="361"/>
      <point x="893" y="412"/>
      <point x="871" y="459" type="curve"/>
      <point x="889" y="453"/>
      <point x="907" y="450"/>
      <point x="924" y="450" type="curve" smooth="yes"/>
      <point x="1015" y="450"/>
      <point x="1103" y="514"/>
      <point x="1182" y="587" type="curve" smooth="yes"/>
      <point x="1258" y="657"/>
      <point x="1369" y="747"/>
      <point x="1454" y="747" type="curve" smooth="yes"/>
      <point x="1500" y="747"/>
      <point x="1522" y="742"/>
      <point x="1539" y="726" type="curve" smooth="yes"/>
      <point x="1561" y="706"/>
      <point x="1569" y="673"/>
      <point x="1569" y="597" type="curve" smooth="yes"/>
      <point x="1569" y="400"/>
      <point x="1475" y="288"/>
      <point x="1344" y="288" type="curve" smooth="yes"/>
      <point x="1260" y="288"/>
      <point x="1177" y="320"/>
      <point x="1105" y="422" type="curve"/>
      <point x="1054" y="384" type="line"/>
      <point x="1105" y="258"/>
      <point x="1224" y="150"/>
      <point x="1363" y="150" type="curve" smooth="yes"/>
      <point x="1546" y="150"/>
      <point x="1711" y="290"/>
      <point x="1709" y="524" type="curve" smooth="yes"/>
    </contour>
    <component base="candrabindudeva" xOffset="813" yOffset="-365"/>
  </outline>
</glyph>
<glyph name="Euro" format="1">
  <advance width="1208"/>
  <unicode hex="20AC"/>
  <outline>
    <contour>
      <point x="1008" y="322" type="line"/>
      <point x="919" y="151" type="line"/>
      <point x="875" y="121"/>
      <point x="793" y="100"/>
      <point x="731" y="100" type="curve" smooth="yes"/>
      <point x="638" y="100"/>
      <point x="532" y="238"/>
      <point x="496" y="306" type="curve" smooth="yes"/>
      <point x="476" y="344"/>
      <point x="461" y="393"/>
      <point x="450" y="446" type="curve"/>
      <point x="641" y="449"/>
      <point x="841" y="467"/>
      <point x="917" y="477" type="curve"/>
      <point x="932" y="562" type="line"/>
      <point x="434" y="562" type="line"/>
      <point x="431" y="591"/>
      <point x="430" y="619"/>
      <point x="430" y="646" type="curve" smooth="yes"/>
      <point x="430" y="674"/>
      <point x="431" y="701"/>
      <point x="432" y="726" type="curve"/>
      <point x="628" y="729"/>
      <point x="839" y="748"/>
      <point x="917" y="758" type="curve"/>
      <point x="932" y="843" type="line"/>
      <point x="441" y="843" type="line"/>
      <point x="464" y="1034"/>
      <point x="519" y="1140"/>
      <point x="558" y="1165" type="curve"/>
      <point x="600" y="1188"/>
      <point x="666" y="1202"/>
      <point x="731" y="1202" type="curve" smooth="yes"/>
      <point x="808" y="1202"/>
      <point x="885" y="1183"/>
      <point x="929" y="1137" type="curve"/>
      <point x="1019" y="974" type="line"/>
      <point x="1095" y="992" type="line"/>
      <point x="1066" y="1272" type="line"/>
      <point x="941" y="1333"/>
      <point x="836" y="1339"/>
      <point x="771" y="1339" type="curve" smooth="yes"/>
      <point x="660" y="1339"/>
      <point x="545" y="1290"/>
      <point x="470" y="1231" type="curve" smooth="yes"/>
      <point x="362" y="1147"/>
      <point x="297" y="1019"/>
      <point x="267" y="843" type="curve"/>
      <point x="85" y="843" type="line"/>
      <point x="67" y="746" type="line"/>
      <point x="120" y="738"/>
      <point x="182" y="732"/>
      <point x="253" y="729" type="curve"/>
      <point x="249" y="681"/>
      <point x="247" y="630"/>
      <point x="247" y="576" type="curve" smooth="yes"/>
      <point x="247" y="562" type="line"/>
      <point x="85" y="562" type="line"/>
      <point x="68" y="466" type="line"/>
      <point x="122" y="458"/>
      <point x="185" y="451"/>
      <point x="256" y="448" type="curve"/>
      <point x="301" y="155"/>
      <point x="499" y="-26"/>
      <point x="743" y="-26" type="curve" smooth="yes"/>
      <point x="842" y="-26"/>
      <point x="949" y="4"/>
      <point x="1069" y="77" type="curve"/>
      <point x="1101" y="302" type="line"/>
    </contour>
  </outline>
</glyph>
<glyph name="approxequal" format="1">
  <advance width="1024"/>
  <unicode hex="2248"/>
  <outline>
    <contour>
      <point x="147" y="620" type="line"/>
      <point x="214" y="679"/>
      <point x="276" y="716"/>
      <point x="339" y="716" type="curve" smooth="yes"/>
      <point x="439" y="716"/>
      <point x="567" y="596"/>
      <point x="667" y="596" type="curve" smooth="yes"/>
      <point x="747" y="596"/>
      <point x="826" y="654"/>
      <point x="863" y="695" type="curve"/>
      <point x="884" y="849" type="line"/>
      <point x="815" y="793"/>
      <point x="755" y="754"/>
      <point x="690" y="754" type="curve" smooth="yes"/>
      <point x="590" y="754"/>
      <point x="461" y="874"/>
      <point x="362" y="874" type="curve" smooth="yes"/>
      <point x="285" y="874"/>
      <point x="211" y="824"/>
      <point x="163" y="770" type="curve"/>
    </contour>
    <contour>
      <point x="147" y="307" type="line"/>
      <point x="214" y="366"/>
      <point x="276" y="403"/>
      <point x="339" y="403" type="curve" smooth="yes"/>
      <point x="439" y="403"/>
      <point x="567" y="283"/>
      <point x="667" y="283" type="curve" smooth="yes"/>
      <point x="747" y="283"/>
      <point x="826" y="341"/>
      <point x="863" y="382" type="curve"/>
      <point x="884" y="536" type="line"/>
      <point x="815" y="480"/>
      <point x="755" y="441"/>
      <point x="690" y="441" type="curve" smooth="yes"/>
      <point x="590" y="441"/>
      <point x="461" y="561"/>
      <point x="362" y="561" type="curve" smooth="yes"/>
      <point x="285" y="561"/>
      <point x="211" y="511"/>
      <point x="163" y="457" type="curve"/>
    </contour>
  </outline>
</glyph>
<glyph name="candrabindudeva.imatra" format="1">
  <advance width="512"/>
  <note>
    dCandrabindu
  </note>
  <outline>
    <component base="ecandravowelsigndeva" xOffset="86" yOffset="10"/>
    <component base="anusvaradeva" xOffset="37" yOffset="210"/>
    <contour>
      <point x="192" y="1083" type="move" name="_top"/>
    </contour>
  </outline>
</glyph>
<glyph name="dadeva_uvowelsigndeva" format="1">
  <advance width="1142"/>
  <note>
    dDMatraU
  </note>
  <outline>
    <contour>
      <point x="912" y="4"/>
      <point x="864" y="41"/>
      <point x="816" y="132" type="curve"/>
      <point x="844" y="149" type="line" smooth="yes"/>
      <point x="909" y="190"/>
      <point x="996" y="275"/>
      <point x="996" y="320" type="curve" smooth="yes"/>
      <point x="996" y="328"/>
      <point x="994" y="334"/>
      <point x="989" y="340" type="curve" smooth="yes"/>
      <point x="932" y="408"/>
      <point x="812" y="470"/>
      <point x="729" y="470" type="curve" smooth="yes"/>
      <point x="677" y="470"/>
      <point x="641" y="448"/>
      <point x="641" y="391" type="curve" smooth="yes"/>
      <point x="641" y="355"/>
      <point x="657" y="288"/>
      <point x="676" y="242" type="curve"/>
      <point x="618" y="206"/>
      <point x="511" y="183"/>
      <point x="422" y="196" type="curve" smooth="yes"/>
      <point x="389" y="200"/>
      <point x="358" y="208"/>
      <point x="329" y="221" type="curve" smooth="yes"/>
      <point x="296" y="236"/>
      <point x="251" y="348"/>
      <point x="251" y="446" type="curve" smooth="yes"/>
      <point x="251" y="556"/>
      <point x="273" y="668"/>
      <point x="501" y="668" type="curve" smooth="yes"/>
      <point x="837" y="668" type="line"/>
      <point x="853" y="734"/>
      <point x="859" y="785"/>
      <point x="859" y="836" type="curve" smooth="yes"/>
      <point x="859" y="901"/>
      <point x="849" y="964"/>
      <point x="830" y="1053" type="curve"/>
      <point x="1194" y="1053" type="line"/>
      <point x="1142" y="1187" type="line"/>
      <point x="-56" y="1187" type="line"/>
      <point x="-2" y="1053" type="line"/>
      <point x="695" y="1053" type="line"/>
      <point x="699" y="1009"/>
      <point x="703" y="966"/>
      <point x="701" y="919" type="curve" smooth="yes"/>
      <point x="700" y="892"/>
      <point x="700" y="859"/>
      <point x="692" y="816" type="curve"/>
      <point x="493" y="816" type="line" smooth="yes"/>
      <point x="150" y="816"/>
      <point x="84" y="660"/>
      <point x="84" y="518" type="curve" smooth="yes"/>
      <point x="84" y="210"/>
      <point x="324" y="60"/>
      <point x="552" y="60" type="curve" smooth="yes"/>
      <point x="621" y="60"/>
      <point x="680" y="71"/>
      <point x="736" y="93" type="curve"/>
      <point x="750" y="54"/>
      <point x="764" y="23"/>
      <point x="780" y="-4" type="curve"/>
      <point x="736" y="-12"/>
      <point x="698" y="-27"/>
      <point x="634" y="-79" type="curve"/>
      <point x="727" y="-194" type="line"/>
      <point x="801" y="-145"/>
      <point x="855" y="-123"/>
      <point x="901" y="-123" type="curve" smooth="yes"/>
      <point x="956" y="-123"/>
      <point x="991" y="-137"/>
      <point x="1002" y="-155" type="curve" smooth="yes"/>
      <point x="1007" y="-163"/>
      <point x="1011" y="-197"/>
      <point x="1010" y="-212" type="curve" smooth="yes"/>
      <point x="1006" y="-308"/>
      <point x="931" y="-376"/>
      <point x="806" y="-376" type="curve" smooth="yes"/>
      <point x="612" y="-376"/>
      <point x="498" y="-247"/>
      <point x="426" y="-148" type="curve"/>
      <point x="347" y="-199" type="line"/>
      <point x="415" y="-308"/>
      <point x="563" y="-507"/>
      <point x="839" y="-507" type="curve" smooth="yes"/>
      <point x="999" y="-507"/>
      <point x="1112" y="-411"/>
      <point x="1112" y="-260" type="curve" smooth="yes"/>
      <point x="1112" y="-166"/>
      <point x="1052" y="-85"/>
      <point x="977" y="-39" type="curve" smooth="yes"/>
    </contour>
    <contour>
      <point x="763" y="1187" type="move" name="top"/>
    </contour>
  </outline>
</glyph>
<glyph name="evowelsigndeva_anusvaradeva" format="1">
  <advance width="512"/>
  <note>
    dMatraEAnusvara
  </note>
  <outline>
    <component base="anusvaradeva" xOffset="108" yOffset="134" xScale="0.956" yScale="0.956"/>
    <component base="evowelsigndeva"/>
    <contour>
      <point x="256" y="1187" type="move" name="_top"/>
    </contour>
  </outline>
</glyph>
<glyph name="tilde.case" format="1">
  <advance width="1024"/>
  <outline>
    <contour>
      <point x="201" y="1543" type="line"/>
      <point x="260" y="1602"/>
      <point x="350" y="1645"/>
      <point x="387" y="1645" type="curve" smooth="yes"/>
      <point x="437" y="1645"/>
      <point x="514" y="1521"/>
      <point x="625" y="1521" type="curve" smooth="yes"/>
      <point x="711" y="1521"/>
      <point x="781" y="1589"/>
      <point x="843" y="1657" type="curve"/>
      <point x="825" y="1768" type="line"/>
      <point x="759" y="1713"/>
      <point x="674" y="1665"/>
      <point x="638" y="1665" type="curve" smooth="yes"/>
      <point x="588" y="1665"/>
      <point x="509" y="1790"/>
      <point x="398" y="1790" type="curve" smooth="yes"/>
      <point x="313" y="1790"/>
      <point x="247" y="1723"/>
      <point x="180" y="1653" type="curve"/>
    </contour>
    <contour>
      <point x="512" y="1384" type="move" name="_top"/>
    </contour>
  </outline>
</glyph>
<glyph name="uni0915094D0930" format="1">
  <advance width="1555"/>
  <note>
    dKRa
  </note>
  <outline>
    <contour>
      <point x="686" y="380" type="line"/>
      <point x="141" y="12" type="line"/>
      <point x="278" y="-126" type="line"/>
      <point x="751" y="303" type="line"/>
    </contour>
    <component base="kadeva"/>
    <contour>
      <point x="768" y="1187" type="move" name="top"/>
    </contour>
    <contour>
      <point x="768" y="0" type="move" name="bottom"/>
    </contour>
  </outline>
</glyph>
<glyph name="uni0915094D0935" format="1">
  <advance width="1517"/>
  <note>
    dKVa
  </note>
  <outline>
    <contour>
      <point x="1041" y="903"/>
      <point x="946" y="875"/>
      <point x="839" y="768" type="curve"/>
      <point x="839" y="1053" type="line"/>
      <point x="1569" y="1053" type="line"/>
      <point x="1518" y="1187" type="line"/>
      <point x="-52" y="1187" type="line"/>
      <point x="3" y="1053" type="line"/>
      <point x="688" y="1053" type="line"/>
      <point x="688" y="802" type="line"/>
      <point x="596" y="876"/>
      <point x="493" y="928"/>
      <point x="385" y="928" type="curve" smooth="yes"/>
      <point x="188" y="928"/>
      <point x="60" y="824"/>
      <point x="60" y="651" type="curve" smooth="yes"/>
      <point x="60" y="563"/>
      <point x="103" y="484"/>
      <point x="166" y="425" type="curve"/>
      <point x="117" y="378"/>
      <point x="90" y="319"/>
      <point x="90" y="239" type="curve" smooth="yes"/>
      <point x="90" y="14"/>
      <point x="344" y="-94"/>
      <point x="453" y="-94" type="curve" smooth="yes"/>
      <point x="521" y="-94"/>
      <point x="599" y="-80"/>
      <point x="688" y="-38" type="curve"/>
      <point x="688" y="-139" type="line"/>
      <point x="839" y="-201" type="line"/>
      <point x="839" y="515" type="line"/>
      <point x="965" y="709"/>
      <point x="1103" y="783"/>
      <point x="1196" y="783" type="curve" smooth="yes"/>
      <point x="1273" y="783"/>
      <point x="1316" y="742"/>
      <point x="1322" y="724" type="curve"/>
      <point x="1324" y="719"/>
      <point x="1325" y="710"/>
      <point x="1325" y="703" type="curve" smooth="yes"/>
      <point x="1325" y="560"/>
      <point x="1252" y="431"/>
      <point x="1043" y="304" type="curve"/>
      <point x="1193" y="177" type="line"/>
      <point x="1348" y="288"/>
      <point x="1445" y="420"/>
      <point x="1445" y="570" type="curve" smooth="yes"/>
      <point x="1445" y="726"/>
      <point x="1294" y="903"/>
      <point x="1132" y="903" type="curve" smooth="yes"/>
    </contour>
    <contour>
      <point x="227" y="742"/>
      <point x="322" y="786"/>
      <point x="443" y="786" type="curve" smooth="yes"/>
      <point x="526" y="786"/>
      <point x="604" y="761"/>
      <point x="688" y="707" type="curve"/>
      <point x="688" y="607" type="line"/>
      <point x="612" y="499"/>
      <point x="466" y="436"/>
      <point x="354" y="436" type="curve" smooth="yes"/>
      <point x="334" y="436"/>
      <point x="291" y="437"/>
      <point x="283" y="447" type="curve"/>
      <point x="247" y="488"/>
      <point x="221" y="556"/>
      <point x="223" y="626" type="curve" smooth="yes"/>
    </contour>
    <contour>
      <point x="341" y="26"/>
      <point x="297" y="27"/>
      <point x="292" y="37" type="curve"/>
      <point x="265" y="83"/>
      <point x="245" y="148"/>
      <point x="247" y="216" type="curve" smooth="yes"/>
      <point x="249" y="271"/>
      <point x="278" y="311"/>
      <point x="311" y="335" type="curve"/>
      <point x="349" y="321"/>
      <point x="387" y="314"/>
      <point x="423" y="314" type="curve" smooth="yes"/>
      <point x="499" y="314"/>
      <point x="583" y="314"/>
      <point x="688" y="378" type="curve"/>
      <point x="688" y="193" type="line"/>
      <point x="609" y="96"/>
      <point x="474" y="26"/>
      <point x="361" y="26" type="curve" smooth="yes"/>
    </contour>
    <contour>
      <point x="764" y="1187" type="move" name="top"/>
    </contour>
    <contour>
      <point x="764" y="-100" type="move" name="bottom"/>
    </contour>
  </outline>
</glyph>
<glyph name="uni0916094D0932.loclMAR" format="1">
  <advance width="1521"/>
  <note>
    dKhLa.MAR
  </note>
  <outline>
    <contour>
      <point x="1347" y="1053" type="line"/>
      <point x="1574" y="1053" type="line"/>
      <point x="1523" y="1187" type="line"/>
      <point x="-56" y="1187" type="line"/>
      <point x="0" y="1053" type="line"/>
      <point x="328" y="1053" type="line"/>
      <point x="338" y="993"/>
      <point x="345" y="937"/>
      <point x="345" y="872" type="curve" smooth="yes"/>
      <point x="345" y="785"/>
      <point x="332" y="711"/>
      <point x="312" y="671" type="curve"/>
      <point x="172" y="736" type="line"/>
      <point x="69" y="692" type="line"/>
      <point x="70" y="675"/>
      <point x="72" y="656"/>
      <point x="76" y="637" type="curve" smooth="yes"/>
      <point x="94" y="541"/>
      <point x="147" y="418"/>
      <point x="224" y="319" type="curve" smooth="yes"/>
      <point x="367" y="133"/>
      <point x="577" y="50"/>
      <point x="769" y="50" type="curve" smooth="yes"/>
      <point x="853" y="50"/>
      <point x="922" y="61"/>
      <point x="1010" y="95" type="curve"/>
      <point x="946" y="257" type="line"/>
      <point x="880" y="233"/>
      <point x="824" y="207"/>
      <point x="705" y="207" type="curve" smooth="yes"/>
      <point x="554" y="207"/>
      <point x="371" y="252"/>
      <point x="237" y="457" type="curve"/>
      <point x="454" y="517"/>
      <point x="517" y="643"/>
      <point x="517" y="801" type="curve" smooth="yes"/>
      <point x="517" y="874"/>
      <point x="494" y="976"/>
      <point x="464" y="1053" type="curve"/>
      <point x="1193" y="1053" type="line"/>
      <point x="1193" y="810" type="line"/>
      <point x="1104" y="864"/>
      <point x="1005" y="906"/>
      <point x="918" y="906" type="curve" smooth="yes"/>
      <point x="713" y="906"/>
      <point x="600" y="811"/>
      <point x="600" y="659" type="curve" smooth="yes"/>
      <point x="600" y="492"/>
      <point x="785" y="341"/>
      <point x="998" y="341" type="curve" smooth="yes"/>
      <point x="1056" y="341"/>
      <point x="1128" y="353"/>
      <point x="1193" y="389" type="curve"/>
      <point x="1193" y="-47" type="line"/>
      <point x="1185" y="-46"/>
      <point x="1178" y="-46"/>
      <point x="1170" y="-46" type="curve" smooth="yes"/>
      <point x="1083" y="-46"/>
      <point x="1010" y="-79"/>
      <point x="951" y="-136" type="curve"/>
      <point x="856" y="-71"/>
      <point x="776" y="-39"/>
      <point x="701" y="-39" type="curve" smooth="yes"/>
      <point x="568" y="-39"/>
      <point x="425" y="-114"/>
      <point x="425" y="-298" type="curve" smooth="yes"/>
      <point x="425" y="-486"/>
      <point x="574" y="-632"/>
      <point x="821" y="-748" type="curve"/>
      <point x="858" y="-670" type="line"/>
      <point x="669" y="-560"/>
      <point x="588" y="-451"/>
      <point x="588" y="-318" type="curve" smooth="yes"/>
      <point x="588" y="-200"/>
      <point x="687" y="-157"/>
      <point x="765" y="-157" type="curve" smooth="yes"/>
      <point x="805" y="-157"/>
      <point x="848" y="-165"/>
      <point x="903" y="-189" type="curve"/>
      <point x="864" y="-242"/>
      <point x="840" y="-302"/>
      <point x="826" y="-392" type="curve"/>
      <point x="965" y="-441" type="line"/>
      <point x="1046" y="-170"/>
      <point x="1171" y="-158"/>
      <point x="1234" y="-158" type="curve" smooth="yes"/>
      <point x="1269" y="-158"/>
      <point x="1310" y="-170"/>
      <point x="1321" y="-179" type="curve" smooth="yes"/>
      <point x="1337" y="-193"/>
      <point x="1342" y="-247"/>
      <point x="1342" y="-272" type="curve" smooth="yes"/>
      <point x="1342" y="-428"/>
      <point x="1230" y="-520"/>
      <point x="1047" y="-644" type="curve"/>
      <point x="1193" y="-759" type="line"/>
      <point x="1364" y="-632"/>
      <point x="1468" y="-518"/>
      <point x="1468" y="-350" type="curve" smooth="yes"/>
      <point x="1468" y="-275"/>
      <point x="1420" y="-181"/>
      <point x="1347" y="-118" type="curve"/>
    </contour>
    <contour>
      <point x="854" y="442"/>
      <point x="840" y="446"/>
      <point x="834" y="451" type="curve"/>
      <point x="794" y="490"/>
      <point x="770" y="555"/>
      <point x="770" y="613" type="curve" smooth="yes"/>
      <point x="770" y="731"/>
      <point x="845" y="777"/>
      <point x="956" y="777" type="curve" smooth="yes"/>
      <point x="1032" y="777"/>
      <point x="1123" y="757"/>
      <point x="1193" y="724" type="curve"/>
      <point x="1193" y="615" type="line"/>
      <point x="1123" y="507"/>
      <point x="1007" y="442"/>
      <point x="874" y="442" type="curve" smooth="yes"/>
    </contour>
    <contour>
      <point x="1270" y="1187" type="move" name="top"/>
    </contour>
    <contour>
      <point x="1146" y="-630" type="move" name="bottom"/>
    </contour>
  </outline>
</glyph>
<glyph name="uni0917094D0928094D" format="1">
  <advance width="621"/>
  <note>
    dGN.half
  </note>
  <outline>
    <contour>
      <point x="-1" y="1053" type="line"/>
      <point x="314" y="1053" type="line"/>
      <point x="331" y="958"/>
      <point x="335" y="860"/>
      <point x="335" y="789" type="curve" smooth="yes"/>
      <point x="335" y="727"/>
      <point x="328" y="668"/>
      <point x="326" y="654" type="curve"/>
      <point x="316" y="655"/>
      <point x="298" y="656"/>
      <point x="286" y="656" type="curve" smooth="yes"/>
      <point x="247" y="656"/>
      <point x="180" y="650"/>
      <point x="146" y="633" type="curve" smooth="yes"/>
      <point x="130" y="625"/>
      <point x="122" y="617"/>
      <point x="122" y="596" type="curve" smooth="yes"/>
      <point x="122" y="526"/>
      <point x="304" y="314"/>
      <point x="378" y="314" type="curve" smooth="yes"/>
      <point x="395" y="314"/>
      <point x="404" y="318"/>
      <point x="413" y="329" type="curve"/>
      <point x="475" y="399"/>
      <point x="492" y="580"/>
      <point x="492" y="671" type="curve" smooth="yes"/>
      <point x="492" y="765"/>
      <point x="481" y="917"/>
      <point x="458" y="1053" type="curve"/>
      <point x="672" y="1053" type="line"/>
      <point x="622" y="1187" type="line"/>
      <point x="-56" y="1187" type="line"/>
    </contour>
    <component base="nadeva.post2" xOffset="1151"/>
    <contour>
      <point x="353" y="0" type="move" name="nukta"/>
    </contour>
  </outline>
</glyph>
<glyph name="uni091A094D091A.alt" format="1">
  <advance width="1244"/>
  <note>
    dCCa.alt
  </note>
  <outline>
    <contour>
      <point x="1295" y="1053" type="line"/>
      <point x="1246" y="1187" type="line"/>
      <point x="-57" y="1187" type="line"/>
      <point x="-1" y="1053" type="line"/>
      <point x="932" y="1053" type="line"/>
      <point x="932" y="737" type="line"/>
      <point x="836" y="590"/>
      <point x="713" y="529"/>
      <point x="556" y="529" type="curve" smooth="yes"/>
      <point x="515" y="529"/>
      <point x="469" y="537"/>
      <point x="455" y="548" type="curve"/>
      <point x="444" y="556"/>
      <point x="424" y="599"/>
      <point x="424" y="638" type="curve" smooth="yes"/>
      <point x="424" y="732"/>
      <point x="498" y="785"/>
      <point x="651" y="793" type="curve"/>
      <point x="771" y="793" type="line"/>
      <point x="720" y="924" type="line"/>
      <point x="104" y="924" type="line"/>
      <point x="156" y="793" type="line"/>
      <point x="336" y="793" type="line"/>
      <point x="299" y="772"/>
      <point x="277" y="742"/>
      <point x="277" y="687" type="curve" smooth="yes"/>
      <point x="277" y="653"/>
      <point x="286" y="620"/>
      <point x="311" y="584" type="curve" smooth="yes"/>
      <point x="380" y="484"/>
      <point x="512" y="408"/>
      <point x="639" y="408" type="curve" smooth="yes"/>
      <point x="761" y="408"/>
      <point x="850" y="433"/>
      <point x="932" y="504" type="curve"/>
      <point x="932" y="252" type="line"/>
      <point x="875" y="108"/>
      <point x="775" y="-10"/>
      <point x="631" y="-54" type="curve" smooth="yes"/>
      <point x="591" y="-66"/>
      <point x="536" y="-67"/>
      <point x="518" y="-60" type="curve"/>
      <point x="505" y="-56"/>
      <point x="475" y="-20"/>
      <point x="463" y="18" type="curve" smooth="yes"/>
      <point x="430" y="124"/>
      <point x="501" y="200"/>
      <point x="669" y="248" type="curve" smooth="yes"/>
      <point x="692" y="255" type="line"/>
      <point x="607" y="357" type="line"/>
      <point x="73" y="202" type="line"/>
      <point x="159" y="96" type="line"/>
      <point x="337" y="149" type="line"/>
      <point x="304" y="115"/>
      <point x="291" y="76"/>
      <point x="308" y="21" type="curve" smooth="yes"/>
      <point x="319" y="-11"/>
      <point x="336" y="-41"/>
      <point x="371" y="-69" type="curve" smooth="yes"/>
      <point x="466" y="-143"/>
      <point x="617" y="-187"/>
      <point x="739" y="-149" type="curve" smooth="yes"/>
      <point x="819" y="-125"/>
      <point x="881" y="-87"/>
      <point x="932" y="-32" type="curve"/>
      <point x="932" y="-159" type="line"/>
      <point x="1086" y="-222" type="line"/>
      <point x="1086" y="1053" type="line"/>
    </contour>
    <contour>
      <point x="1009" y="1187" type="move" name="top"/>
    </contour>
    <contour>
      <point x="1009" y="-100" type="move" name="bottom"/>
    </contour>
  </outline>
</glyph>
<glyph name="uni091B094D0935" format="1">
  <advance width="1210"/>
  <note>
    dChVa
  </note>
  <outline>
    <contour>
      <point x="976" y="990"/>
      <point x="966" y="1025"/>
      <point x="955" y="1053" type="curve"/>
      <point x="1262" y="1053" type="line"/>
      <point x="1212" y="1187" type="line"/>
      <point x="-52" y="1187" type="line"/>
      <point x="1" y="1053" type="line"/>
      <point x="93" y="1053" type="line"/>
      <point x="78" y="1029"/>
      <point x="69" y="1001"/>
      <point x="69" y="968" type="curve" smooth="yes"/>
      <point x="69" y="899"/>
      <point x="115" y="839"/>
      <point x="223" y="796" type="curve"/>
      <point x="153" y="751"/>
      <point x="105" y="686"/>
      <point x="105" y="597" type="curve" smooth="yes"/>
      <point x="105" y="425"/>
      <point x="315" y="228"/>
      <point x="612" y="228" type="curve" smooth="yes"/>
      <point x="673" y="228"/>
      <point x="729" y="234"/>
      <point x="780" y="246" type="curve"/>
      <point x="780" y="65" type="line"/>
      <point x="659" y="128"/>
      <point x="573" y="172"/>
      <point x="450" y="172" type="curve" smooth="yes"/>
      <point x="287" y="172"/>
      <point x="155" y="92"/>
      <point x="155" y="-76" type="curve" smooth="yes"/>
      <point x="155" y="-214"/>
      <point x="309" y="-405"/>
      <point x="542" y="-405" type="curve" smooth="yes"/>
      <point x="631" y="-405"/>
      <point x="714" y="-375"/>
      <point x="780" y="-305" type="curve"/>
      <point x="780" y="-480" type="line"/>
      <point x="934" y="-544" type="line"/>
      <point x="934" y="303" type="line"/>
      <point x="1074" y="381"/>
      <point x="1151" y="512"/>
      <point x="1151" y="662" type="curve" smooth="yes"/>
      <point x="1151" y="787"/>
      <point x="1089" y="906"/>
      <point x="979" y="954" type="curve"/>
    </contour>
    <contour>
      <point x="453" y="351"/>
      <point x="374" y="351"/>
      <point x="346" y="366" type="curve" smooth="yes"/>
      <point x="327" y="376"/>
      <point x="260" y="432"/>
      <point x="260" y="532" type="curve" smooth="yes"/>
      <point x="260" y="653"/>
      <point x="409" y="702"/>
      <point x="572" y="720" type="curve"/>
      <point x="500" y="877" type="line"/>
      <point x="432" y="873"/>
      <point x="360" y="859"/>
      <point x="298" y="834" type="curve"/>
      <point x="252" y="866"/>
      <point x="238" y="899"/>
      <point x="238" y="937" type="curve" smooth="yes"/>
      <point x="238" y="1037"/>
      <point x="314" y="1053"/>
      <point x="427" y="1053" type="curve" smooth="yes"/>
      <point x="850" y="1053" type="line"/>
      <point x="851" y="1039"/>
      <point x="852" y="1023"/>
      <point x="852" y="1004" type="curve" smooth="yes"/>
      <point x="852" y="995"/>
      <point x="851" y="986"/>
      <point x="850" y="977" type="curve"/>
      <point x="740" y="971"/>
      <point x="654" y="908"/>
      <point x="646" y="804" type="curve"/>
      <point x="646" y="659"/>
      <point x="739" y="597"/>
      <point x="960" y="546" type="curve"/>
      <point x="864" y="421"/>
      <point x="671" y="351"/>
      <point x="502" y="351" type="curve" smooth="yes"/>
    </contour>
    <contour>
      <point x="1007" y="841"/>
      <point x="1020" y="804"/>
      <point x="1020" y="717" type="curve" smooth="yes"/>
      <point x="1020" y="678"/>
      <point x="1012" y="642"/>
      <point x="998" y="609" type="curve"/>
      <point x="892" y="639"/>
      <point x="808" y="677"/>
      <point x="808" y="771" type="curve" smooth="yes"/>
      <point x="808" y="847"/>
      <point x="853" y="885"/>
      <point x="926" y="885" type="curve" smooth="yes"/>
      <point x="942" y="885"/>
      <point x="985" y="879"/>
      <point x="991" y="868" type="curve"/>
    </contour>
    <contour>
      <point x="417" y="-290"/>
      <point x="397" y="-287"/>
      <point x="391" y="-281" type="curve"/>
      <point x="358" y="-244"/>
      <point x="332" y="-195"/>
      <point x="332" y="-119" type="curve" smooth="yes"/>
      <point x="332" y="-12"/>
      <point x="426" y="30"/>
      <point x="525" y="30" type="curve" smooth="yes"/>
      <point x="619" y="30"/>
      <point x="691" y="12"/>
      <point x="780" y="-18" type="curve"/>
      <point x="780" y="-91" type="line"/>
      <point x="693" y="-243"/>
      <point x="562" y="-290"/>
      <point x="436" y="-290" type="curve" smooth="yes"/>
    </contour>
    <contour>
      <point x="885" y="1187" type="move" name="top"/>
    </contour>
    <contour>
      <point x="857" y="-440" type="move" name="bottom"/>
    </contour>
  </outline>
</glyph>
<glyph name="uni091C094D091C094D.alt" format="1">
  <advance width="1175"/>
  <note>
    dJJ.half_alt
  </note>
  <outline>
    <contour>
      <point x="-1" y="1053" type="line"/>
      <point x="1228" y="1053" type="line"/>
      <point x="1177" y="1187" type="line"/>
      <point x="-56" y="1187" type="line"/>
    </contour>
    <contour>
      <point x="1263" y="737" type="line"/>
      <point x="1212" y="877" type="line"/>
      <point x="466" y="877" type="line"/>
      <point x="502" y="773" type="line"/>
      <point x="623" y="739"/>
      <point x="723" y="715"/>
      <point x="723" y="604" type="curve" smooth="yes"/>
      <point x="723" y="539"/>
      <point x="675" y="475"/>
      <point x="560" y="475" type="curve" smooth="yes"/>
      <point x="367" y="475"/>
      <point x="222" y="630"/>
      <point x="138" y="864" type="curve"/>
      <point x="55" y="835" type="line"/>
      <point x="158" y="458"/>
      <point x="335" y="311"/>
      <point x="596" y="311" type="curve" smooth="yes"/>
      <point x="772" y="311"/>
      <point x="889" y="413"/>
      <point x="889" y="542" type="curve" smooth="yes"/>
      <point x="889" y="619"/>
      <point x="858" y="694"/>
      <point x="739" y="737" type="curve"/>
    </contour>
    <contour>
      <point x="1330" y="383" type="line"/>
      <point x="1219" y="478" type="line"/>
      <point x="527" y="144" type="line"/>
      <point x="608" y="64" type="line"/>
      <point x="787" y="122"/>
      <point x="898" y="60"/>
      <point x="898" y="-56" type="curve" smooth="yes"/>
      <point x="898" y="-148"/>
      <point x="801" y="-224"/>
      <point x="660" y="-224" type="curve" smooth="yes"/>
      <point x="520" y="-224"/>
      <point x="376" y="-144"/>
      <point x="240" y="-11" type="curve"/>
      <point x="175" y="-73" type="line"/>
      <point x="357" y="-280"/>
      <point x="527" y="-366"/>
      <point x="697" y="-368" type="curve" smooth="yes"/>
      <point x="908" y="-370"/>
      <point x="1083" y="-273"/>
      <point x="1083" y="-97" type="curve" smooth="yes"/>
      <point x="1083" y="10"/>
      <point x="1025" y="140"/>
      <point x="840" y="140" type="curve"/>
    </contour>
  </outline>
</glyph>
<glyph name="uni091F094D0922" format="1">
  <advance width="1129"/>
  <note>
    dTtDdha
  </note>
  <outline>
    <contour>
      <point x="949" y="548" type="line"/>
      <point x="803" y="389"/>
      <point x="677" y="336"/>
      <point x="531" y="336" type="curve" smooth="yes"/>
      <point x="441" y="336"/>
      <point x="345" y="376"/>
      <point x="328" y="391" type="curve"/>
      <point x="297" y="423"/>
      <point x="284" y="484"/>
      <point x="284" y="562" type="curve" smooth="yes"/>
      <point x="284" y="677"/>
      <point x="356" y="737"/>
      <point x="500" y="737" type="curve" smooth="yes"/>
      <point x="890" y="737" type="line"/>
      <point x="902" y="772"/>
      <point x="907" y="809"/>
      <point x="907" y="854" type="curve" smooth="yes"/>
      <point x="907" y="908"/>
      <point x="896" y="971"/>
      <point x="873" y="1053" type="curve"/>
      <point x="1179" y="1053" type="line"/>
      <point x="1128" y="1187" type="line"/>
      <point x="-52" y="1187" type="line"/>
      <point x="4" y="1053" type="line"/>
      <point x="735" y="1053" type="line"/>
      <point x="737" y="1030"/>
      <point x="737" y="1007"/>
      <point x="737" y="984" type="curve" smooth="yes"/>
      <point x="737" y="955"/>
      <point x="733" y="911"/>
      <point x="722" y="878" type="curve"/>
      <point x="446" y="878" type="line" smooth="yes"/>
      <point x="141" y="878"/>
      <point x="107" y="745"/>
      <point x="107" y="626" type="curve" smooth="yes"/>
      <point x="107" y="382"/>
      <point x="366" y="204"/>
      <point x="618" y="204" type="curve" smooth="yes"/>
      <point x="659" y="204"/>
      <point x="698" y="207"/>
      <point x="735" y="214" type="curve"/>
      <point x="736" y="202"/>
      <point x="736" y="189"/>
      <point x="736" y="175" type="curve" smooth="yes"/>
      <point x="736" y="149"/>
      <point x="733" y="122"/>
      <point x="732" y="108" type="curve"/>
      <point x="498" y="108" type="line" smooth="yes"/>
      <point x="295" y="108"/>
      <point x="153" y="36"/>
      <point x="153" y="-159" type="curve" smooth="yes"/>
      <point x="153" y="-279"/>
      <point x="220" y="-398"/>
      <point x="360" y="-489" type="curve" smooth="yes"/>
      <point x="445" y="-544"/>
      <point x="561" y="-580"/>
      <point x="664" y="-580" type="curve" smooth="yes"/>
      <point x="937" y="-580"/>
      <point x="1023" y="-431"/>
      <point x="1023" y="-363" type="curve" smooth="yes"/>
      <point x="1023" y="-215"/>
      <point x="803" y="-97"/>
      <point x="699" y="-97" type="curve" smooth="yes"/>
      <point x="609" y="-97"/>
      <point x="505" y="-141"/>
      <point x="505" y="-277" type="curve" smooth="yes"/>
      <point x="505" y="-327"/>
      <point x="528" y="-395"/>
      <point x="560" y="-442" type="curve"/>
      <point x="452" y="-444"/>
      <point x="402" y="-421"/>
      <point x="388" y="-407" type="curve"/>
      <point x="349" y="-372"/>
      <point x="313" y="-295"/>
      <point x="313" y="-213" type="curve" smooth="yes"/>
      <point x="313" y="-63"/>
      <point x="423" y="-13"/>
      <point x="591" y="-13" type="curve" smooth="yes"/>
      <point x="895" y="-13" type="line"/>
      <point x="896" y="75"/>
      <point x="886" y="153"/>
      <point x="863" y="255" type="curve"/>
      <point x="940" y="292"/>
      <point x="1008" y="349"/>
      <point x="1074" y="428" type="curve"/>
    </contour>
    <contour>
      <point x="856" y="-219"/>
      <point x="873" y="-224"/>
      <point x="882" y="-227" type="curve"/>
      <point x="887" y="-230"/>
      <point x="892" y="-253"/>
      <point x="892" y="-280" type="curve" smooth="yes"/>
      <point x="892" y="-373"/>
      <point x="741" y="-441"/>
      <point x="627" y="-441" type="curve"/>
      <point x="629" y="-271"/>
      <point x="738" y="-219"/>
      <point x="835" y="-219" type="curve" smooth="yes"/>
    </contour>
    <contour>
      <point x="797" y="1187" type="move" name="top"/>
    </contour>
    <contour>
      <point x="738" y="-530" type="move" name="bottom"/>
    </contour>
  </outline>
</glyph>
<glyph name="uni091F094D0928" format="1">
  <advance width="1127"/>
  <note>
    dTtNa
  </note>
  <outline>
    <contour>
      <point x="441" y="336"/>
      <point x="345" y="376"/>
      <point x="328" y="391" type="curve"/>
      <point x="297" y="423"/>
      <point x="284" y="484"/>
      <point x="284" y="562" type="curve" smooth="yes"/>
      <point x="284" y="677"/>
      <point x="356" y="737"/>
      <point x="500" y="737" type="curve" smooth="yes"/>
      <point x="890" y="737" type="line"/>
      <point x="902" y="772"/>
      <point x="907" y="809"/>
      <point x="907" y="854" type="curve" smooth="yes"/>
      <point x="907" y="908"/>
      <point x="896" y="971"/>
      <point x="873" y="1053" type="curve"/>
      <point x="1179" y="1053" type="line"/>
      <point x="1128" y="1187" type="line"/>
      <point x="-52" y="1187" type="line"/>
      <point x="4" y="1053" type="line"/>
      <point x="735" y="1053" type="line"/>
      <point x="737" y="1030"/>
      <point x="737" y="1007"/>
      <point x="737" y="984" type="curve" smooth="yes"/>
      <point x="737" y="955"/>
      <point x="733" y="911"/>
      <point x="722" y="878" type="curve"/>
      <point x="446" y="878" type="line" smooth="yes"/>
      <point x="141" y="878"/>
      <point x="107" y="745"/>
      <point x="107" y="626" type="curve" smooth="yes"/>
      <point x="107" y="382"/>
      <point x="366" y="204"/>
      <point x="618" y="204" type="curve" smooth="yes"/>
      <point x="653" y="204"/>
      <point x="687" y="206"/>
      <point x="719" y="211" type="curve"/>
      <point x="719" y="65" type="line"/>
      <point x="318" y="65" type="line" smooth="yes"/>
      <point x="278" y="65"/>
      <point x="233" y="64"/>
      <point x="207" y="55" type="curve" smooth="yes"/>
      <point x="188" y="49"/>
      <point x="182" y="30"/>
      <point x="182" y="18" type="curve" smooth="yes"/>
      <point x="182" y="-80"/>
      <point x="284" y="-206"/>
      <point x="368" y="-234" type="curve"/>
      <point x="372" y="-235"/>
      <point x="380" y="-237"/>
      <point x="386" y="-237" type="curve" smooth="yes"/>
      <point x="395" y="-237"/>
      <point x="404" y="-235"/>
      <point x="413" y="-228" type="curve" smooth="yes"/>
      <point x="444" y="-204"/>
      <point x="461" y="-132"/>
      <point x="466" y="-73" type="curve"/>
      <point x="719" y="-73" type="line"/>
      <point x="719" y="-379" type="line"/>
      <point x="873" y="-441" type="line"/>
      <point x="873" y="260" type="line"/>
      <point x="946" y="297"/>
      <point x="1011" y="353"/>
      <point x="1074" y="428" type="curve"/>
      <point x="949" y="548" type="line"/>
      <point x="803" y="389"/>
      <point x="677" y="336"/>
      <point x="531" y="336" type="curve" smooth="yes"/>
    </contour>
    <contour>
      <point x="796" y="-330" type="move" name="bottom"/>
    </contour>
  </outline>
</glyph>
<glyph name="uni0921094D092F" format="1">
  <advance width="2144"/>
  <note>
    dDdYa
  </note>
  <outline>
    <contour>
      <point x="2145" y="1187" type="line"/>
      <point x="1007" y="1187" type="line"/>
      <point x="1064" y="1053" type="line"/>
      <point x="1847" y="1053" type="line"/>
      <point x="1842" y="469" type="line"/>
      <point x="1837" y="469" type="line"/>
      <point x="1759" y="332"/>
      <point x="1605" y="245"/>
      <point x="1462" y="245" type="curve" smooth="yes"/>
      <point x="1369" y="245"/>
      <point x="1300" y="279"/>
      <point x="1231" y="339" type="curve"/>
      <point x="1472" y="429"/>
      <point x="1578" y="519"/>
      <point x="1578" y="622" type="curve" smooth="yes"/>
      <point x="1578" y="710"/>
      <point x="1495" y="899"/>
      <point x="1287" y="899" type="curve" smooth="yes"/>
      <point x="758" y="899" type="line"/>
      <point x="818" y="755" type="line"/>
      <point x="1303" y="755" type="line" smooth="yes"/>
      <point x="1378" y="755"/>
      <point x="1424" y="744"/>
      <point x="1437" y="715" type="curve" smooth="yes"/>
      <point x="1453" y="679"/>
      <point x="1380" y="556"/>
      <point x="1071" y="466" type="curve"/>
      <point x="1186" y="218"/>
      <point x="1348" y="94"/>
      <point x="1531" y="88" type="curve" smooth="yes"/>
      <point x="1630" y="85"/>
      <point x="1743" y="104"/>
      <point x="1837" y="187" type="curve"/>
      <point x="1839" y="187" type="line"/>
      <point x="1837" y="-39" type="line"/>
      <point x="1991" y="-102" type="line"/>
      <point x="2001" y="1053" type="line"/>
      <point x="2195" y="1053" type="line"/>
    </contour>
    <component base="ddadeva"/>
    <contour>
      <point x="1924" y="1187" type="move" name="top"/>
    </contour>
    <contour>
      <point x="1924" y="0" type="move" name="bottom"/>
    </contour>
  </outline>
</glyph>
<glyph name="uni0922094D092F" format="1">
  <advance width="2163"/>
  <note>
    dDdhYa
  </note>
  <outline>
    <contour>
      <point x="2164" y="1187" type="line"/>
      <point x="1041" y="1187" type="line"/>
      <point x="1096" y="1053" type="line"/>
      <point x="1861" y="1053" type="line"/>
      <point x="1861" y="499" type="line"/>
      <point x="1783" y="342"/>
      <point x="1619" y="255"/>
      <point x="1476" y="255" type="curve" smooth="yes"/>
      <point x="1383" y="255"/>
      <point x="1324" y="271"/>
      <point x="1255" y="319" type="curve"/>
      <point x="1506" y="398"/>
      <point x="1572" y="509"/>
      <point x="1572" y="612" type="curve" smooth="yes"/>
      <point x="1572" y="700"/>
      <point x="1509" y="844"/>
      <point x="1341" y="844" type="curve" smooth="yes"/>
      <point x="765" y="844" type="line"/>
      <point x="824" y="700" type="line"/>
      <point x="1327" y="700" type="line" smooth="yes"/>
      <point x="1374" y="700"/>
      <point x="1438" y="692"/>
      <point x="1450" y="660" type="curve" smooth="yes"/>
      <point x="1462" y="629"/>
      <point x="1321" y="508"/>
      <point x="1123" y="456" type="curve" smooth="yes"/>
      <point x="1107" y="452"/>
      <point x="1099" y="436"/>
      <point x="1106" y="421" type="curve" smooth="yes"/>
      <point x="1209" y="200"/>
      <point x="1380" y="104"/>
      <point x="1555" y="98" type="curve" smooth="yes"/>
      <point x="1654" y="95"/>
      <point x="1767" y="114"/>
      <point x="1861" y="217" type="curve"/>
      <point x="1861" y="-39" type="line"/>
      <point x="2015" y="-102" type="line"/>
      <point x="2015" y="1053" type="line"/>
      <point x="2215" y="1053" type="line"/>
    </contour>
    <component base="ddhadeva"/>
    <contour>
      <point x="1941" y="1187" type="move" name="top"/>
    </contour>
    <contour>
      <point x="1941" y="0" type="move" name="bottom"/>
    </contour>
  </outline>
</glyph>
<glyph name="uni0925094D" format="1">
  <advance width="790"/>
  <note>
    dTh.half
  </note>
  <outline>
    <contour>
      <point x="919" y="598" type="line"/>
      <point x="815" y="448"/>
      <point x="705" y="370"/>
      <point x="534" y="370" type="curve" smooth="yes"/>
      <point x="438" y="370"/>
      <point x="351" y="421"/>
      <point x="298" y="476" type="curve"/>
      <point x="496" y="593"/>
      <point x="601" y="720"/>
      <point x="601" y="890" type="curve" smooth="yes"/>
      <point x="601" y="1002"/>
      <point x="539" y="1220"/>
      <point x="313" y="1220" type="curve" smooth="yes"/>
      <point x="186" y="1220"/>
      <point x="101" y="1137"/>
      <point x="101" y="1012" type="curve" smooth="yes"/>
      <point x="101" y="882"/>
      <point x="175" y="795"/>
      <point x="374" y="741" type="curve"/>
      <point x="318" y="685"/>
      <point x="230" y="629"/>
      <point x="94" y="567" type="curve"/>
      <point x="114" y="497"/>
      <point x="290" y="232"/>
      <point x="595" y="232" type="curve" smooth="yes"/>
      <point x="769" y="232"/>
      <point x="897" y="297"/>
      <point x="1032" y="436" type="curve"/>
    </contour>
    <contour>
      <point x="840" y="1053" type="line"/>
      <point x="790" y="1187" type="line"/>
      <point x="651" y="1187" type="line"/>
      <point x="707" y="1053" type="line"/>
    </contour>
    <contour>
      <point x="251" y="1050"/>
      <point x="284" y="1102"/>
      <point x="365" y="1102" type="curve" smooth="yes"/>
      <point x="388" y="1102"/>
      <point x="415" y="1098"/>
      <point x="441" y="1081" type="curve" smooth="yes"/>
      <point x="450" y="1075"/>
      <point x="463" y="1039"/>
      <point x="463" y="972" type="curve" smooth="yes"/>
      <point x="463" y="911"/>
      <point x="454" y="859"/>
      <point x="426" y="809" type="curve"/>
      <point x="298" y="851"/>
      <point x="251" y="913"/>
      <point x="251" y="992" type="curve" smooth="yes"/>
    </contour>
  </outline>
</glyph>
<glyph name="uni0925094D0930" format="1">
  <advance width="1214"/>
  <note>
    dThRa
  </note>
  <outline>
    <contour>
      <point x="840" y="1053" type="line"/>
      <point x="790" y="1187" type="line"/>
      <point x="651" y="1187" type="line"/>
      <point x="707" y="1053" type="line"/>
    </contour>
    <contour>
      <point x="769" y="232"/>
      <point x="897" y="297"/>
      <point x="1032" y="436" type="curve"/>
      <point x="919" y="598" type="line"/>
      <point x="815" y="448"/>
      <point x="705" y="370"/>
      <point x="534" y="370" type="curve" smooth="yes"/>
      <point x="438" y="370"/>
      <point x="351" y="421"/>
      <point x="298" y="476" type="curve"/>
      <point x="496" y="593"/>
      <point x="601" y="720"/>
      <point x="601" y="890" type="curve" smooth="yes"/>
      <point x="601" y="1002"/>
      <point x="539" y="1220"/>
      <point x="313" y="1220" type="curve" smooth="yes"/>
      <point x="186" y="1220"/>
      <point x="101" y="1137"/>
      <point x="101" y="1012" type="curve" smooth="yes"/>
      <point x="101" y="877"/>
      <point x="181" y="788"/>
      <point x="399" y="735" type="curve"/>
      <point x="443" y="804" type="line"/>
      <point x="302" y="846"/>
      <point x="251" y="910"/>
      <point x="251" y="992" type="curve" smooth="yes"/>
      <point x="251" y="1050"/>
      <point x="284" y="1102"/>
      <point x="365" y="1102" type="curve" smooth="yes"/>
      <point x="388" y="1102"/>
      <point x="415" y="1098"/>
      <point x="441" y="1081" type="curve" smooth="yes"/>
      <point x="450" y="1075"/>
      <point x="463" y="1039"/>
      <point x="463" y="972" type="curve" smooth="yes"/>
      <point x="463" y="811"/>
      <point x="397" y="706"/>
      <point x="94" y="567" type="curve"/>
      <point x="114" y="497"/>
      <point x="290" y="232"/>
      <point x="595" y="232" type="curve" smooth="yes"/>
    </contour>
    <contour>
      <point x="896" y="-40" type="line"/>
      <point x="1050" y="-101" type="line"/>
      <point x="1050" y="1053" type="line"/>
      <point x="1266" y="1053" type="line"/>
      <point x="1217" y="1187" type="line"/>
      <point x="639" y="1187" type="line"/>
      <point x="692" y="1053" type="line"/>
      <point x="896" y="1053" type="line"/>
    </contour>
    <contour>
      <point x="727" y="331"/>
      <point x="375" y="95"/>
      <point x="294" y="38" type="curve" smooth="yes"/>
      <point x="284" y="31"/>
      <point x="282" y="16"/>
      <point x="291" y="5" type="curve" smooth="yes"/>
      <point x="375" y="-92" type="line" smooth="yes"/>
      <point x="383" y="-101"/>
      <point x="392" y="-105"/>
      <point x="401" y="-105" type="curve" smooth="yes"/>
      <point x="409" y="-105"/>
      <point x="417" y="-101"/>
      <point x="425" y="-94" type="curve" smooth="yes"/>
      <point x="903" y="326" type="line" smooth="yes"/>
      <point x="910" y="332"/>
      <point x="912" y="338"/>
      <point x="911" y="344" type="curve"/>
      <point x="910" y="353"/>
      <point x="892" y="378"/>
      <point x="877" y="399" type="curve" smooth="yes"/>
      <point x="871" y="407"/>
      <point x="866" y="415"/>
      <point x="857" y="416" type="curve"/>
      <point x="849" y="418"/>
      <point x="842" y="415"/>
      <point x="832" y="408" type="curve" smooth="yes"/>
    </contour>
    <contour>
      <point x="911" y="1187" type="move" name="top"/>
    </contour>
    <contour>
      <point x="911" y="0" type="move" name="bottom"/>
    </contour>
  </outline>
</glyph>
<glyph name="uni0926094D0926" format="1">
  <advance width="1076"/>
  <note>
    dDDa
  </note>
  <outline>
    <contour>
      <point x="838" y="-23" type="line" smooth="yes"/>
      <point x="903" y="18"/>
      <point x="982" y="103"/>
      <point x="982" y="138" type="curve" smooth="yes"/>
      <point x="982" y="156"/>
      <point x="980" y="162"/>
      <point x="970" y="174" type="curve" smooth="yes"/>
      <point x="918" y="236"/>
      <point x="807" y="288"/>
      <point x="724" y="288" type="curve" smooth="yes"/>
      <point x="672" y="288"/>
      <point x="636" y="260"/>
      <point x="636" y="203" type="curve" smooth="yes"/>
      <point x="636" y="167"/>
      <point x="655" y="121"/>
      <point x="676" y="79" type="curve"/>
      <point x="627" y="49"/>
      <point x="550" y="21"/>
      <point x="471" y="21" type="curve" smooth="yes"/>
      <point x="434" y="21"/>
      <point x="337" y="28"/>
      <point x="312" y="53" type="curve" smooth="yes"/>
      <point x="271" y="94"/>
      <point x="255" y="161"/>
      <point x="255" y="207" type="curve" smooth="yes"/>
      <point x="255" y="306"/>
      <point x="294" y="379"/>
      <point x="506" y="380" type="curve" smooth="yes"/>
      <point x="777" y="381" type="line"/>
      <point x="728" y="521" type="line"/>
      <point x="498" y="521" type="line" smooth="yes"/>
      <point x="478" y="521"/>
      <point x="458" y="520"/>
      <point x="439" y="519" type="curve"/>
      <point x="298" y="538"/>
      <point x="262" y="597"/>
      <point x="262" y="650" type="curve"/>
      <point x="265" y="710"/>
      <point x="306" y="736"/>
      <point x="446" y="736" type="curve" smooth="yes"/>
      <point x="794" y="736" type="line"/>
      <point x="798" y="776"/>
      <point x="802" y="809"/>
      <point x="802" y="848" type="curve" smooth="yes"/>
      <point x="802" y="898"/>
      <point x="796" y="957"/>
      <point x="775" y="1053" type="curve"/>
      <point x="1128" y="1053" type="line"/>
      <point x="1078" y="1187" type="line"/>
      <point x="-52" y="1187" type="line"/>
      <point x="4" y="1053" type="line"/>
      <point x="640" y="1053" type="line"/>
      <point x="644" y="1014"/>
      <point x="646" y="990"/>
      <point x="646" y="966" type="curve" smooth="yes"/>
      <point x="646" y="943"/>
      <point x="644" y="920"/>
      <point x="637" y="884" type="curve"/>
      <point x="408" y="884" type="line" smooth="yes"/>
      <point x="189" y="884"/>
      <point x="95" y="823"/>
      <point x="95" y="706" type="curve" smooth="yes"/>
      <point x="95" y="643"/>
      <point x="119" y="549"/>
      <point x="253" y="484" type="curve"/>
      <point x="139" y="441"/>
      <point x="85" y="364"/>
      <point x="85" y="271" type="curve" smooth="yes"/>
      <point x="85" y="102"/>
      <point x="253" y="-112"/>
      <point x="546" y="-112" type="curve" smooth="yes"/>
      <point x="617" y="-112"/>
      <point x="677" y="-100"/>
      <point x="735" y="-77" type="curve"/>
      <point x="776" y="-167"/>
      <point x="823" y="-227"/>
      <point x="897" y="-310" type="curve"/>
      <point x="1027" y="-181" type="line"/>
      <point x="946" y="-135"/>
      <point x="878" y="-94"/>
      <point x="824" y="-32" type="curve"/>
    </contour>
    <contour>
      <point x="708" y="1187" type="move" name="top"/>
    </contour>
    <contour>
      <point x="778" y="-140" type="move" name="bottom"/>
    </contour>
  </outline>
</glyph>
<glyph name="uni0926094D092C0941" format="1">
  <advance width="1159"/>
  <outline>
    <contour>
      <point x="955" y="-5"/>
      <point x="869" y="56"/>
      <point x="805" y="163" type="curve"/>
      <point x="818" y="171"/>
      <point x="832" y="179"/>
      <point x="845" y="187" type="curve" smooth="yes"/>
      <point x="910" y="228"/>
      <point x="989" y="313"/>
      <point x="989" y="348" type="curve" smooth="yes"/>
      <point x="989" y="361"/>
      <point x="985" y="377"/>
      <point x="970" y="393" type="curve" smooth="yes"/>
      <point x="923" y="444"/>
      <point x="813" y="508"/>
      <point x="730" y="508" type="curve" smooth="yes"/>
      <point x="678" y="508"/>
      <point x="642" y="480"/>
      <point x="642" y="423" type="curve" smooth="yes"/>
      <point x="642" y="387"/>
      <point x="662" y="324"/>
      <point x="683" y="282" type="curve"/>
      <point x="634" y="251"/>
      <point x="545" y="231"/>
      <point x="464" y="231" type="curve" smooth="yes"/>
      <point x="437" y="231"/>
      <point x="343" y="241"/>
      <point x="328" y="256" type="curve" smooth="yes"/>
      <point x="286" y="296"/>
      <point x="252" y="399"/>
      <point x="252" y="508" type="curve" smooth="yes"/>
      <point x="252" y="613"/>
      <point x="284" y="716"/>
      <point x="502" y="716" type="curve" smooth="yes"/>
      <point x="845" y="716" type="line"/>
      <point x="854" y="762"/>
      <point x="858" y="806"/>
      <point x="857" y="851" type="curve"/>
      <point x="857" y="912"/>
      <point x="848" y="976"/>
      <point x="831" y="1053" type="curve"/>
      <point x="1210" y="1053" type="line"/>
      <point x="1160" y="1187" type="line"/>
      <point x="-53" y="1187" type="line"/>
      <point x="-1" y="1053" type="line"/>
      <point x="698" y="1053" type="line"/>
      <point x="702" y="1009"/>
      <point x="704" y="986"/>
      <point x="702" y="959" type="curve" smooth="yes"/>
      <point x="700" y="932"/>
      <point x="701" y="907"/>
      <point x="693" y="864" type="curve"/>
      <point x="494" y="864" type="line" smooth="yes"/>
      <point x="151" y="864"/>
      <point x="85" y="700"/>
      <point x="85" y="558" type="curve" smooth="yes"/>
      <point x="85" y="402"/>
      <point x="166" y="272"/>
      <point x="278" y="191" type="curve"/>
      <point x="173" y="139"/>
      <point x="135" y="39"/>
      <point x="135" y="-13" type="curve" smooth="yes"/>
      <point x="135" y="-134"/>
      <point x="287" y="-301"/>
      <point x="465" y="-301" type="curve" smooth="yes"/>
      <point x="549" y="-301"/>
      <point x="733" y="-253"/>
      <point x="816" y="-42" type="curve"/>
      <point x="831" y="-64"/>
      <point x="846" y="-83"/>
      <point x="861" y="-99" type="curve"/>
      <point x="844" y="-109"/>
      <point x="826" y="-121"/>
      <point x="808" y="-135" type="curve"/>
      <point x="897" y="-252" type="line"/>
      <point x="975" y="-188"/>
      <point x="1028" y="-175"/>
      <point x="1078" y="-175" type="curve" smooth="yes"/>
      <point x="1123" y="-175"/>
      <point x="1173" y="-198"/>
      <point x="1184" y="-216" type="curve" smooth="yes"/>
      <point x="1189" y="-224"/>
      <point x="1193" y="-256"/>
      <point x="1192" y="-278" type="curve" smooth="yes"/>
      <point x="1188" y="-367"/>
      <point x="1122" y="-427"/>
      <point x="999" y="-427" type="curve" smooth="yes"/>
      <point x="907" y="-427"/>
      <point x="824" y="-370"/>
      <point x="740" y="-269" type="curve"/>
      <point x="668" y="-330" type="line"/>
      <point x="747" y="-437"/>
      <point x="854" y="-558"/>
      <point x="1032" y="-558" type="curve" smooth="yes"/>
      <point x="1190" y="-558"/>
      <point x="1284" y="-471"/>
      <point x="1284" y="-320" type="curve" smooth="yes"/>
      <point x="1284" y="-181"/>
      <point x="1171" y="-71"/>
      <point x="1052" y="-61" type="curve"/>
    </contour>
    <contour>
      <point x="597" y="-81" type="line"/>
      <point x="441" y="68" type="line" smooth="yes"/>
      <point x="432" y="77"/>
      <point x="423" y="85"/>
      <point x="413" y="92" type="curve"/>
      <point x="432" y="99"/>
      <point x="451" y="104"/>
      <point x="469" y="107" type="curve"/>
      <point x="497" y="101"/>
      <point x="525" y="98"/>
      <point x="553" y="98" type="curve" smooth="yes"/>
      <point x="616" y="98"/>
      <point x="671" y="108"/>
      <point x="723" y="126" type="curve"/>
      <point x="697" y="38"/>
      <point x="659" y="-37"/>
      <point x="609" y="-93" type="curve"/>
    </contour>
    <contour>
      <point x="381" y="-221"/>
      <point x="362" y="-208"/>
      <point x="356" y="-202" type="curve"/>
      <point x="312" y="-162"/>
      <point x="268" y="-102"/>
      <point x="282" y="-33" type="curve" smooth="yes"/>
      <point x="289" y="3"/>
      <point x="312" y="32"/>
      <point x="342" y="55" type="curve"/>
      <point x="349" y="43"/>
      <point x="363" y="24"/>
      <point x="380" y="9" type="curve"/>
      <point x="537" y="-146" type="line"/>
      <point x="545" y="-154" type="line"/>
      <point x="501" y="-186"/>
      <point x="452" y="-208"/>
      <point x="398" y="-218" type="curve" smooth="yes"/>
    </contour>
    <contour>
      <point x="765" y="1187" type="move" name="top"/>
    </contour>
    <contour>
      <point x="884" y="-70" type="move" name="bottom"/>
    </contour>
  </outline>
</glyph>
<glyph name="uni0926094D092C0942" format="1">
  <advance width="1237"/>
  <outline>
    <contour>
      <point x="1315" y="-164"/>
      <point x="1191" y="-49"/>
      <point x="1038" y="-49" type="curve" smooth="yes"/>
      <point x="1032" y="-49" type="line"/>
      <point x="943" y="4"/>
      <point x="864" y="64"/>
      <point x="805" y="163" type="curve"/>
      <point x="818" y="171"/>
      <point x="832" y="179"/>
      <point x="845" y="187" type="curve" smooth="yes"/>
      <point x="910" y="228"/>
      <point x="989" y="313"/>
      <point x="989" y="348" type="curve" smooth="yes"/>
      <point x="989" y="361"/>
      <point x="985" y="377"/>
      <point x="970" y="393" type="curve" smooth="yes"/>
      <point x="923" y="444"/>
      <point x="813" y="508"/>
      <point x="730" y="508" type="curve" smooth="yes"/>
      <point x="678" y="508"/>
      <point x="642" y="480"/>
      <point x="642" y="423" type="curve" smooth="yes"/>
      <point x="642" y="387"/>
      <point x="662" y="324"/>
      <point x="683" y="282" type="curve"/>
      <point x="634" y="251"/>
      <point x="545" y="231"/>
      <point x="464" y="231" type="curve" smooth="yes"/>
      <point x="437" y="231"/>
      <point x="343" y="241"/>
      <point x="328" y="256" type="curve" smooth="yes"/>
      <point x="286" y="296"/>
      <point x="252" y="399"/>
      <point x="252" y="508" type="curve" smooth="yes"/>
      <point x="252" y="613"/>
      <point x="284" y="716"/>
      <point x="502" y="716" type="curve" smooth="yes"/>
      <point x="845" y="716" type="line"/>
      <point x="854" y="762"/>
      <point x="858" y="806"/>
      <point x="857" y="851" type="curve"/>
      <point x="857" y="912"/>
      <point x="848" y="976"/>
      <point x="831" y="1053" type="curve"/>
      <point x="1288" y="1053" type="line"/>
      <point x="1238" y="1187" type="line"/>
      <point x="-53" y="1187" type="line"/>
      <point x="-1" y="1053" type="line"/>
      <point x="698" y="1053" type="line"/>
      <point x="702" y="1009"/>
      <point x="704" y="986"/>
      <point x="702" y="959" type="curve" smooth="yes"/>
      <point x="700" y="932"/>
      <point x="701" y="907"/>
      <point x="693" y="864" type="curve"/>
      <point x="494" y="864" type="line" smooth="yes"/>
      <point x="151" y="864"/>
      <point x="85" y="700"/>
      <point x="85" y="558" type="curve" smooth="yes"/>
      <point x="85" y="402"/>
      <point x="166" y="272"/>
      <point x="278" y="191" type="curve"/>
      <point x="173" y="139"/>
      <point x="135" y="39"/>
      <point x="135" y="-13" type="curve" smooth="yes"/>
      <point x="135" y="-134"/>
      <point x="287" y="-301"/>
      <point x="465" y="-301" type="curve" smooth="yes"/>
      <point x="549" y="-301"/>
      <point x="733" y="-253"/>
      <point x="816" y="-42" type="curve"/>
      <point x="830" y="-62"/>
      <point x="843" y="-79"/>
      <point x="857" y="-94" type="curve"/>
      <point x="796" y="-131"/>
      <point x="755" y="-189"/>
      <point x="755" y="-266" type="curve" smooth="yes"/>
      <point x="755" y="-439"/>
      <point x="907" y="-542"/>
      <point x="1024" y="-542" type="curve" smooth="yes"/>
      <point x="1103" y="-542"/>
      <point x="1156" y="-516"/>
      <point x="1213" y="-458" type="curve"/>
      <point x="1136" y="-336" type="line"/>
      <point x="1075" y="-385"/>
      <point x="1035" y="-406"/>
      <point x="974" y="-406" type="curve" smooth="yes"/>
      <point x="932" y="-406"/>
      <point x="896" y="-393"/>
      <point x="889" y="-387" type="curve"/>
      <point x="881" y="-381"/>
      <point x="876" y="-349"/>
      <point x="876" y="-330" type="curve" smooth="yes"/>
      <point x="876" y="-234"/>
      <point x="953" y="-184"/>
      <point x="1055" y="-184" type="curve" smooth="yes"/>
      <point x="1213" y="-184"/>
      <point x="1293" y="-304"/>
      <point x="1436" y="-495" type="curve"/>
      <point x="1490" y="-449" type="line"/>
      <point x="1480" y="-417"/>
      <point x="1429" y="-324"/>
      <point x="1393" y="-272" type="curve" smooth="yes"/>
    </contour>
    <contour>
      <point x="597" y="-81" type="line"/>
      <point x="441" y="68" type="line" smooth="yes"/>
      <point x="432" y="77"/>
      <point x="423" y="85"/>
      <point x="413" y="92" type="curve"/>
      <point x="432" y="99"/>
      <point x="451" y="104"/>
      <point x="469" y="107" type="curve"/>
      <point x="497" y="101"/>
      <point x="525" y="98"/>
      <point x="553" y="98" type="curve" smooth="yes"/>
      <point x="616" y="98"/>
      <point x="671" y="108"/>
      <point x="723" y="126" type="curve"/>
      <point x="697" y="38"/>
      <point x="659" y="-37"/>
      <point x="609" y="-93" type="curve"/>
    </contour>
    <contour>
      <point x="381" y="-221"/>
      <point x="362" y="-208"/>
      <point x="356" y="-202" type="curve"/>
      <point x="312" y="-162"/>
      <point x="268" y="-102"/>
      <point x="282" y="-33" type="curve" smooth="yes"/>
      <point x="289" y="3"/>
      <point x="312" y="32"/>
      <point x="342" y="55" type="curve"/>
      <point x="349" y="43"/>
      <point x="363" y="24"/>
      <point x="380" y="9" type="curve"/>
      <point x="537" y="-146" type="line"/>
      <point x="545" y="-154" type="line"/>
      <point x="501" y="-186"/>
      <point x="452" y="-208"/>
      <point x="398" y="-218" type="curve" smooth="yes"/>
    </contour>
    <contour>
      <point x="746" y="1187" type="move" name="top"/>
    </contour>
  </outline>
</glyph>
<glyph name="uni0926094D092E" format="1">
  <advance width="1243"/>
  <note>
    dDMa
  </note>
  <outline>
    <contour>
      <point x="1295" y="1053" type="line"/>
      <point x="1246" y="1187" type="line"/>
      <point x="-56" y="1187" type="line"/>
      <point x="-1" y="1053" type="line"/>
      <point x="484" y="1053" type="line"/>
      <point x="488" y="1022"/>
      <point x="490" y="990"/>
      <point x="490" y="954" type="curve" smooth="yes"/>
      <point x="490" y="928"/>
      <point x="489" y="893"/>
      <point x="487" y="879" type="curve"/>
      <point x="303" y="879" type="line" smooth="yes"/>
      <point x="198" y="879"/>
      <point x="45" y="862"/>
      <point x="45" y="702" type="curve" smooth="yes"/>
      <point x="45" y="605"/>
      <point x="157" y="436"/>
      <point x="379" y="436" type="curve" smooth="yes"/>
      <point x="493" y="436" type="line" smooth="yes"/>
      <point x="499" y="436"/>
      <point x="510" y="435"/>
      <point x="518" y="432" type="curve"/>
      <point x="523" y="427"/>
      <point x="525" y="392"/>
      <point x="525" y="375" type="curve" smooth="yes"/>
      <point x="525" y="304" type="line"/>
      <point x="461" y="304"/>
      <point x="416" y="300"/>
      <point x="386" y="295" type="curve" smooth="yes"/>
      <point x="365" y="291"/>
      <point x="350" y="277"/>
      <point x="350" y="261" type="curve" smooth="yes"/>
      <point x="350" y="161"/>
      <point x="526" y="5"/>
      <point x="591" y="5" type="curve" smooth="yes"/>
      <point x="657" y="5"/>
      <point x="660" y="122"/>
      <point x="663" y="165" type="curve"/>
      <point x="951" y="165" type="line"/>
      <point x="951" y="-39" type="line"/>
      <point x="1105" y="-102" type="line"/>
      <point x="1105" y="1053" type="line"/>
    </contour>
    <contour>
      <point x="951" y="298" type="line"/>
      <point x="666" y="298" type="line"/>
      <point x="666" y="377" type="line" smooth="yes"/>
      <point x="666" y="449"/>
      <point x="617" y="533"/>
      <point x="543" y="562" type="curve" smooth="yes"/>
      <point x="526" y="569"/>
      <point x="510" y="572"/>
      <point x="492" y="572" type="curve" smooth="yes"/>
      <point x="293" y="572" type="line" smooth="yes"/>
      <point x="265" y="572"/>
      <point x="229" y="579"/>
      <point x="224" y="584" type="curve" smooth="yes"/>
      <point x="216" y="592"/>
      <point x="198" y="624"/>
      <point x="198" y="663" type="curve" smooth="yes"/>
      <point x="198" y="710"/>
      <point x="207" y="731"/>
      <point x="322" y="731" type="curve" smooth="yes"/>
      <point x="612" y="731" type="line" smooth="yes"/>
      <point x="633" y="731"/>
      <point x="640" y="739"/>
      <point x="642" y="753" type="curve" smooth="yes"/>
      <point x="645" y="777"/>
      <point x="647" y="802"/>
      <point x="647" y="833" type="curve" smooth="yes"/>
      <point x="647" y="907"/>
      <point x="628" y="992"/>
      <point x="611" y="1053" type="curve"/>
      <point x="951" y="1053" type="line"/>
    </contour>
    <contour>
      <point x="1028" y="1187" type="move" name="top"/>
    </contour>
    <contour>
      <point x="1028" y="0" type="move" name="bottom"/>
    </contour>
  </outline>
</glyph>
<glyph name="uni0926094D09300941" format="1">
  <advance width="1132"/>
  <outline>
    <contour>
      <point x="950" y="12"/>
      <point x="893" y="52"/>
      <point x="837" y="137" type="curve"/>
      <point x="857" y="149" type="line" smooth="yes"/>
      <point x="922" y="190"/>
      <point x="1009" y="275"/>
      <point x="1009" y="320" type="curve" smooth="yes"/>
      <point x="1009" y="328"/>
      <point x="1007" y="334"/>
      <point x="1002" y="340" type="curve" smooth="yes"/>
      <point x="945" y="408"/>
      <point x="825" y="470"/>
      <point x="742" y="470" type="curve" smooth="yes"/>
      <point x="690" y="470"/>
      <point x="654" y="448"/>
      <point x="654" y="391" type="curve" smooth="yes"/>
      <point x="654" y="355"/>
      <point x="670" y="288"/>
      <point x="689" y="242" type="curve"/>
      <point x="631" y="206"/>
      <point x="524" y="183"/>
      <point x="435" y="196" type="curve" smooth="yes"/>
      <point x="402" y="200"/>
      <point x="371" y="208"/>
      <point x="342" y="221" type="curve" smooth="yes"/>
      <point x="309" y="236"/>
      <point x="264" y="348"/>
      <point x="264" y="446" type="curve" smooth="yes"/>
      <point x="264" y="556"/>
      <point x="286" y="668"/>
      <point x="514" y="668" type="curve" smooth="yes"/>
      <point x="850" y="668" type="line"/>
      <point x="866" y="734"/>
      <point x="872" y="785"/>
      <point x="872" y="836" type="curve" smooth="yes"/>
      <point x="872" y="901"/>
      <point x="862" y="964"/>
      <point x="843" y="1053" type="curve"/>
      <point x="1187" y="1053" type="line"/>
      <point x="1135" y="1187" type="line"/>
      <point x="-52" y="1187" type="line"/>
      <point x="2" y="1053" type="line"/>
      <point x="708" y="1053" type="line"/>
      <point x="712" y="1009"/>
      <point x="716" y="966"/>
      <point x="714" y="919" type="curve" smooth="yes"/>
      <point x="713" y="892"/>
      <point x="713" y="859"/>
      <point x="705" y="816" type="curve"/>
      <point x="506" y="816" type="line" smooth="yes"/>
      <point x="163" y="816"/>
      <point x="97" y="660"/>
      <point x="97" y="518" type="curve" smooth="yes"/>
      <point x="97" y="210"/>
      <point x="337" y="60"/>
      <point x="565" y="60" type="curve" smooth="yes"/>
      <point x="592" y="60"/>
      <point x="617" y="62"/>
      <point x="641" y="65" type="curve"/>
      <point x="333" y="-159" type="line"/>
      <point x="471" y="-292" type="line"/>
      <point x="777" y="44" type="line"/>
      <point x="790" y="18"/>
      <point x="803" y="-5"/>
      <point x="815" y="-25" type="curve"/>
      <point x="780" y="-35"/>
      <point x="744" y="-54"/>
      <point x="705" y="-85" type="curve"/>
      <point x="793" y="-201" type="line"/>
      <point x="872" y="-136"/>
      <point x="928" y="-125"/>
      <point x="974" y="-125" type="curve" smooth="yes"/>
      <point x="1019" y="-125"/>
      <point x="1069" y="-148"/>
      <point x="1080" y="-166" type="curve" smooth="yes"/>
      <point x="1085" y="-174"/>
      <point x="1089" y="-206"/>
      <point x="1088" y="-228" type="curve" smooth="yes"/>
      <point x="1084" y="-317"/>
      <point x="1018" y="-377"/>
      <point x="895" y="-377" type="curve" smooth="yes"/>
      <point x="803" y="-377"/>
      <point x="716" y="-315"/>
      <point x="649" y="-235" type="curve"/>
      <point x="577" y="-297" type="line"/>
      <point x="642" y="-385"/>
      <point x="752" y="-508"/>
      <point x="928" y="-508" type="curve" smooth="yes"/>
      <point x="1086" y="-508"/>
      <point x="1180" y="-421"/>
      <point x="1180" y="-270" type="curve" smooth="yes"/>
      <point x="1180" y="-159"/>
      <point x="1108" y="-66"/>
      <point x="1018" y="-28" type="curve"/>
    </contour>
    <contour>
      <point x="106" y="0" type="move" name="nukta"/>
    </contour>
    <contour>
      <point x="793" y="10" type="move" name="bottom"/>
    </contour>
    <contour>
      <point x="776" y="1187" type="move" name="top"/>
    </contour>
  </outline>
</glyph>
<glyph name="uni0926094D09350942" format="1">
  <advance width="1133"/>
  <outline>
    <contour>
      <point x="1315" y="-154"/>
      <point x="1191" y="-39"/>
      <point x="1038" y="-39" type="curve" smooth="yes"/>
      <point x="1027" y="-39"/>
      <point x="1017" y="-39"/>
      <point x="1006" y="-40" type="curve"/>
      <point x="924" y="11"/>
      <point x="853" y="69"/>
      <point x="798" y="159" type="curve"/>
      <point x="813" y="168"/>
      <point x="829" y="177"/>
      <point x="845" y="187" type="curve" smooth="yes"/>
      <point x="910" y="228"/>
      <point x="989" y="313"/>
      <point x="989" y="348" type="curve" smooth="yes"/>
      <point x="989" y="361"/>
      <point x="985" y="377"/>
      <point x="970" y="393" type="curve" smooth="yes"/>
      <point x="923" y="444"/>
      <point x="813" y="508"/>
      <point x="730" y="508" type="curve" smooth="yes"/>
      <point x="678" y="508"/>
      <point x="642" y="480"/>
      <point x="642" y="423" type="curve" smooth="yes"/>
      <point x="642" y="387"/>
      <point x="662" y="324"/>
      <point x="683" y="282" type="curve"/>
      <point x="634" y="251"/>
      <point x="545" y="231"/>
      <point x="464" y="231" type="curve" smooth="yes"/>
      <point x="437" y="231"/>
      <point x="343" y="241"/>
      <point x="328" y="256" type="curve" smooth="yes"/>
      <point x="286" y="296"/>
      <point x="252" y="399"/>
      <point x="252" y="508" type="curve" smooth="yes"/>
      <point x="252" y="613"/>
      <point x="284" y="716"/>
      <point x="502" y="716" type="curve" smooth="yes"/>
      <point x="845" y="716" type="line"/>
      <point x="854" y="762"/>
      <point x="858" y="806"/>
      <point x="857" y="851" type="curve"/>
      <point x="857" y="912"/>
      <point x="848" y="976"/>
      <point x="831" y="1053" type="curve"/>
      <point x="1180" y="1053" type="line"/>
      <point x="1130" y="1187" type="line"/>
      <point x="-53" y="1187" type="line"/>
      <point x="-1" y="1053" type="line"/>
      <point x="698" y="1053" type="line"/>
      <point x="702" y="1009"/>
      <point x="704" y="986"/>
      <point x="702" y="959" type="curve" smooth="yes"/>
      <point x="700" y="932"/>
      <point x="701" y="907"/>
      <point x="693" y="864" type="curve"/>
      <point x="494" y="864" type="line" smooth="yes"/>
      <point x="151" y="864"/>
      <point x="85" y="700"/>
      <point x="85" y="558" type="curve" smooth="yes"/>
      <point x="85" y="400"/>
      <point x="168" y="269"/>
      <point x="283" y="188" type="curve"/>
      <point x="167" y="138"/>
      <point x="125" y="32"/>
      <point x="125" y="-23" type="curve" smooth="yes"/>
      <point x="125" y="-144"/>
      <point x="277" y="-311"/>
      <point x="455" y="-311" type="curve" smooth="yes"/>
      <point x="540" y="-311"/>
      <point x="727" y="-262"/>
      <point x="810" y="-44" type="curve"/>
      <point x="822" y="-61"/>
      <point x="835" y="-76"/>
      <point x="848" y="-90" type="curve"/>
      <point x="792" y="-126"/>
      <point x="755" y="-182"/>
      <point x="755" y="-256" type="curve" smooth="yes"/>
      <point x="755" y="-429"/>
      <point x="907" y="-532"/>
      <point x="1024" y="-532" type="curve" smooth="yes"/>
      <point x="1103" y="-532"/>
      <point x="1156" y="-506"/>
      <point x="1213" y="-448" type="curve"/>
      <point x="1136" y="-326" type="line"/>
      <point x="1075" y="-375"/>
      <point x="1035" y="-396"/>
      <point x="974" y="-396" type="curve" smooth="yes"/>
      <point x="932" y="-396"/>
      <point x="896" y="-383"/>
      <point x="889" y="-377" type="curve"/>
      <point x="881" y="-371"/>
      <point x="876" y="-339"/>
      <point x="876" y="-320" type="curve" smooth="yes"/>
      <point x="876" y="-224"/>
      <point x="953" y="-174"/>
      <point x="1055" y="-174" type="curve" smooth="yes"/>
      <point x="1213" y="-174"/>
      <point x="1293" y="-294"/>
      <point x="1436" y="-485" type="curve"/>
      <point x="1490" y="-439" type="line"/>
      <point x="1480" y="-407"/>
      <point x="1429" y="-314"/>
      <point x="1393" y="-262" type="curve" smooth="yes"/>
    </contour>
    <contour>
      <point x="371" y="-231"/>
      <point x="352" y="-218"/>
      <point x="346" y="-212" type="curve"/>
      <point x="302" y="-172"/>
      <point x="258" y="-112"/>
      <point x="272" y="-43" type="curve" smooth="yes"/>
      <point x="291" y="53"/>
      <point x="422" y="98"/>
      <point x="490" y="103" type="curve"/>
      <point x="511" y="100"/>
      <point x="532" y="98"/>
      <point x="553" y="98" type="curve" smooth="yes"/>
      <point x="612" y="98"/>
      <point x="664" y="106"/>
      <point x="712" y="122" type="curve"/>
      <point x="656" y="-77"/>
      <point x="539" y="-200"/>
      <point x="388" y="-228" type="curve" smooth="yes"/>
    </contour>
    <contour>
      <point x="746" y="1187" type="move" name="top"/>
    </contour>
  </outline>
</glyph>
<glyph name="uni0928094D092D" format="1">
  <advance width="1768"/>
  <note>
    dNBha
  </note>
  <outline>
    <contour>
      <point x="1770" y="1187" type="line"/>
      <point x="1189" y="1187" type="line"/>
      <point x="1245" y="1053" type="line"/>
      <point x="1450" y="1053" type="line"/>
      <point x="1450" y="472" type="line"/>
      <point x="1034" y="472" type="line"/>
      <point x="1046" y="548"/>
      <point x="1052" y="680"/>
      <point x="1052" y="763" type="curve" smooth="yes"/>
      <point x="1052" y="856"/>
      <point x="1041" y="989"/>
      <point x="984" y="1080" type="curve" smooth="yes"/>
      <point x="939" y="1151"/>
      <point x="862" y="1210"/>
      <point x="756" y="1210" type="curve" smooth="yes"/>
      <point x="650" y="1210"/>
      <point x="552" y="1135"/>
      <point x="552" y="1011" type="curve" smooth="yes"/>
      <point x="552" y="861"/>
      <point x="665" y="778"/>
      <point x="896" y="763" type="curve"/>
      <point x="895" y="738"/>
      <point x="894" y="712"/>
      <point x="892" y="685" type="curve"/>
      <point x="234" y="685" type="line" smooth="yes"/>
      <point x="194" y="685"/>
      <point x="149" y="684"/>
      <point x="123" y="675" type="curve" smooth="yes"/>
      <point x="104" y="669"/>
      <point x="98" y="650"/>
      <point x="98" y="638" type="curve" smooth="yes"/>
      <point x="98" y="540"/>
      <point x="230" y="384"/>
      <point x="314" y="356" type="curve"/>
      <point x="318" y="355"/>
      <point x="326" y="353"/>
      <point x="332" y="353" type="curve" smooth="yes"/>
      <point x="341" y="353"/>
      <point x="350" y="355"/>
      <point x="359" y="362" type="curve" smooth="yes"/>
      <point x="390" y="386"/>
      <point x="407" y="472"/>
      <point x="412" y="551" type="curve"/>
      <point x="880" y="551" type="line"/>
      <point x="877" y="530"/>
      <point x="873" y="510"/>
      <point x="869" y="492" type="curve"/>
      <point x="793" y="492"/>
      <point x="674" y="492"/>
      <point x="674" y="433" type="curve" smooth="yes"/>
      <point x="674" y="364"/>
      <point x="851" y="164"/>
      <point x="919" y="164" type="curve" smooth="yes"/>
      <point x="961" y="164"/>
      <point x="1006" y="267"/>
      <point x="1016" y="333" type="curve"/>
      <point x="1450" y="333" type="line"/>
      <point x="1450" y="-39" type="line"/>
      <point x="1604" y="-102" type="line"/>
      <point x="1604" y="1053" type="line"/>
      <point x="1820" y="1053" type="line"/>
    </contour>
    <contour>
      <point x="478" y="1187" type="line"/>
      <point x="-56" y="1187" type="line"/>
      <point x="-1" y="1053" type="line"/>
      <point x="529" y="1053" type="line"/>
    </contour>
    <contour>
      <point x="707" y="1063"/>
      <point x="741" y="1104"/>
      <point x="791" y="1104" type="curve" smooth="yes"/>
      <point x="852" y="1104"/>
      <point x="882" y="1066"/>
      <point x="892" y="964" type="curve" smooth="yes"/>
      <point x="896" y="927"/>
      <point x="897" y="891"/>
      <point x="897" y="863" type="curve" smooth="yes"/>
      <point x="897" y="837" type="line"/>
      <point x="763" y="862"/>
      <point x="707" y="925"/>
      <point x="707" y="1002" type="curve"/>
    </contour>
    <contour>
      <point x="1527" y="1187" type="move" name="top"/>
    </contour>
    <contour>
      <point x="1527" y="0" type="move" name="bottom"/>
    </contour>
  </outline>
</glyph>
<glyph name="uni092A094D" format="1">
  <advance width="590"/>
  <note>
    dP.half
  </note>
  <outline>
    <contour>
      <point x="640" y="293"/>
      <point x="718" y="302"/>
      <point x="870" y="442" type="curve"/>
      <point x="795" y="617" type="line"/>
      <point x="696" y="504"/>
      <point x="592" y="405"/>
      <point x="446" y="405" type="curve" smooth="yes"/>
      <point x="399" y="405"/>
      <point x="356" y="421"/>
      <point x="347" y="433" type="curve" smooth="yes"/>
      <point x="323" y="464"/>
      <point x="301" y="531"/>
      <point x="301" y="607" type="curve" smooth="yes"/>
      <point x="301" y="1053" type="line"/>
      <point x="643" y="1053" type="line"/>
      <point x="591" y="1187" type="line"/>
      <point x="-56" y="1187" type="line"/>
      <point x="-1" y="1053" type="line"/>
      <point x="139" y="1053" type="line"/>
      <point x="139" y="648" type="line" smooth="yes"/>
      <point x="139" y="373"/>
      <point x="429" y="293"/>
      <point x="527" y="293" type="curve" smooth="yes"/>
    </contour>
  </outline>
</glyph>
<glyph name="uni092A094D091D" format="1">
  <advance width="1921"/>
  <outline>
    <contour>
      <point x="640" y="323"/>
      <point x="718" y="332"/>
      <point x="870" y="472" type="curve"/>
      <point x="795" y="647" type="line"/>
      <point x="696" y="534"/>
      <point x="592" y="435"/>
      <point x="446" y="435" type="curve" smooth="yes"/>
      <point x="399" y="435"/>
      <point x="356" y="451"/>
      <point x="347" y="463" type="curve" smooth="yes"/>
      <point x="323" y="494"/>
      <point x="301" y="561"/>
      <point x="301" y="637" type="curve" smooth="yes"/>
      <point x="301" y="1053" type="line"/>
      <point x="643" y="1053" type="line"/>
      <point x="591" y="1187" type="line"/>
      <point x="-56" y="1187" type="line"/>
      <point x="-1" y="1053" type="line"/>
      <point x="139" y="1053" type="line"/>
      <point x="139" y="678" type="line" smooth="yes"/>
      <point x="139" y="403"/>
      <point x="429" y="323"/>
      <point x="527" y="323" type="curve" smooth="yes"/>
    </contour>
    <component base="jhadeva" xOffset="519"/>
  </outline>
</glyph>
<glyph name="uni0932.loclMAR" format="1">
  <advance width="1377"/>
  <note>
    dLa.MAR
  </note>
  <outline>
    <contour>
      <point x="1058" y="824"/>
      <point x="1059" y="845"/>
      <point x="1059" y="866" type="curve"/>
      <point x="1058" y="918"/>
      <point x="1049" y="975"/>
      <point x="1028" y="1053" type="curve"/>
      <point x="1429" y="1053" type="line"/>
      <point x="1377" y="1187" type="line"/>
      <point x="-52" y="1187" type="line"/>
      <point x="3" y="1053" type="line"/>
      <point x="914" y="1053" type="line"/>
      <point x="917" y="1024"/>
      <point x="918" y="995"/>
      <point x="918" y="973" type="curve" smooth="yes"/>
      <point x="918" y="900"/>
      <point x="909" y="862"/>
      <point x="894" y="819" type="curve"/>
      <point x="816" y="808"/>
      <point x="746" y="772"/>
      <point x="690" y="717" type="curve"/>
      <point x="576" y="800"/>
      <point x="484" y="832"/>
      <point x="396" y="832" type="curve" smooth="yes"/>
      <point x="218" y="832"/>
      <point x="85" y="718"/>
      <point x="85" y="521" type="curve" smooth="yes"/>
      <point x="85" y="278"/>
      <point x="309" y="27"/>
      <point x="569" y="-97" type="curve"/>
      <point x="615" y="-15" type="line"/>
      <point x="356" y="155"/>
      <point x="263" y="313"/>
      <point x="263" y="499" type="curve" smooth="yes"/>
      <point x="263" y="637"/>
      <point x="353" y="704"/>
      <point x="469" y="704" type="curve" smooth="yes"/>
      <point x="519" y="704"/>
      <point x="579" y="690"/>
      <point x="642" y="662" type="curve"/>
      <point x="598" y="603"/>
      <point x="567" y="533"/>
      <point x="555" y="429" type="curve"/>
      <point x="703" y="378" type="line"/>
      <point x="777" y="656"/>
      <point x="914" y="697"/>
      <point x="1012" y="697" type="curve" smooth="yes"/>
      <point x="1088" y="697"/>
      <point x="1133" y="663"/>
      <point x="1145" y="648" type="curve" smooth="yes"/>
      <point x="1158" y="631"/>
      <point x="1162" y="575"/>
      <point x="1162" y="550" type="curve" smooth="yes"/>
      <point x="1162" y="339"/>
      <point x="1004" y="173"/>
      <point x="830" y="30" type="curve"/>
      <point x="985" y="-95" type="line"/>
      <point x="1159" y="52"/>
      <point x="1296" y="252"/>
      <point x="1296" y="437" type="curve" smooth="yes"/>
      <point x="1296" y="589"/>
      <point x="1197" y="747"/>
      <point x="1055" y="802" type="curve"/>
    </contour>
    <contour>
      <point x="157" y="0" type="move" name="nukta"/>
    </contour>
    <contour>
      <point x="953" y="10" type="move" name="bottom"/>
    </contour>
    <contour>
      <point x="983" y="1187" type="move" name="top"/>
    </contour>
  </outline>
</glyph>
<glyph name="uni0932094D0930" format="1">
  <advance width="1369"/>
  <note>
    dLRa
  </note>
  <outline>
    <contour>
      <point x="1112" y="557" type="line"/>
      <point x="683" y="125" type="line"/>
      <point x="825" y="21" type="line"/>
      <point x="1183" y="496" type="line"/>
    </contour>
    <component base="uni0932"/>
  </outline>
</glyph>
<glyph name="uni093F.0" format="1">
  <advance width="475"/>
  <note>
    dMatraI.0
  </note>
  <outline>
    <contour>
      <point x="552" y="1558"/>
      <point x="729" y="1427"/>
      <point x="912" y="1249" type="curve"/>
      <point x="967" y="1316" type="line"/>
      <point x="870" y="1432"/>
      <point x="618" y="1710"/>
      <point x="350" y="1710" type="curve" smooth="yes"/>
      <point x="158" y="1710"/>
      <point x="66" y="1578"/>
      <point x="66" y="1457" type="curve" smooth="yes"/>
      <point x="66" y="1373"/>
      <point x="127" y="1267"/>
      <point x="186" y="1187" type="curve"/>
      <point x="-57" y="1187" type="line"/>
      <point x="-1" y="1053" type="line"/>
      <point x="186" y="1053" type="line"/>
      <point x="186" y="-39" type="line"/>
      <point x="340" y="-103" type="line"/>
      <point x="340" y="1053" type="line"/>
      <point x="524" y="1053" type="line"/>
      <point x="475" y="1187" type="line"/>
      <point x="297" y="1187" type="line"/>
      <point x="255" y="1264"/>
      <point x="229" y="1326"/>
      <point x="229" y="1391" type="curve" smooth="yes"/>
      <point x="229" y="1489"/>
      <point x="297" y="1558"/>
      <point x="411" y="1558" type="curve" smooth="yes"/>
    </contour>
    <contour>
      <point x="967" y="1316" type="move" name="imatra"/>
    </contour>
    <contour>
      <point x="940" y="1286" type="move" name="top"/>
    </contour>
  </outline>
</glyph>
